<svg width="44" height="44" viewBox="0 0 44 44" fill="none" xmlns="http://www.w3.org/2000/svg">
<path d="M21.7969 0C9.76042 0 0 9.76042 0 21.7969C0 33.8333 9.76042 43.5937 21.7969 43.5937C33.8333 43.5937 43.5937 33.8333 43.5937 21.7969C43.5937 9.76042 33.8333 0 21.7969 0Z" fill="#8B8F6B" fill-opacity="0.5"/>
<path d="M24.414 12.5269C24.1393 12.1677 23.7642 11.9933 23.2992 11.9933C22.8924 11.9933 22.6124 12.0726 22.4645 12.2258C22.3113 12.3843 21.9996 12.7964 21.5083 13.4779C21.017 14.1594 20.4675 14.7722 19.8335 15.327C19.1996 15.8764 18.3649 16.3941 17.3135 16.8908C16.6109 17.2236 16.1196 17.493 15.8343 17.7043C15.5543 17.9104 15.4116 18.2379 15.4116 18.687C15.4116 19.0674 15.5543 19.4055 15.8396 19.7013C16.1248 19.9972 16.4471 20.1398 16.8116 20.1398C17.5777 20.1398 19.0675 19.2893 21.2758 17.5881V29.4697C21.2758 30.1618 21.4396 30.6901 21.7619 31.0441C22.0789 31.4033 22.5068 31.5777 23.0404 31.5777C24.2343 31.5777 24.8313 30.706 24.8313 28.9573V14.0062C24.8313 13.3828 24.6887 12.8809 24.414 12.5269Z" fill="#333333"/>
</svg>
