<svg width="50" height="50" viewBox="0 0 50 50" fill="none" xmlns="http://www.w3.org/2000/svg">
<path d="M24.7969 3.2489C12.7604 3.2489 3 13.0093 3 25.0458C3 37.0822 12.7604 46.8426 24.7969 46.8426C36.8333 46.8426 46.5937 37.0822 46.5937 25.0458C46.5937 13.0093 36.8333 3.2489 24.7969 3.2489Z" fill="#8B8F6B" fill-opacity="0.5"/>
<path d="M19.5312 15.5938C19.2396 15.2136 18.8437 15.0261 18.3542 15.0261C17.9167 15.0261 17.625 15.1095 17.4687 15.2709C17.3073 15.4428 16.974 15.8751 16.4583 16.6042C15.9375 17.3178 15.3542 17.9688 14.6823 18.5574C14.0104 19.1407 13.125 19.6876 12.0104 20.2136C11.2656 20.5626 10.75 20.849 10.4479 21.073C10.151 21.2917 10 21.6407 10 22.1147C10 22.5157 10.151 22.8751 10.4531 23.1876C10.7552 23.5001 11.099 23.6511 11.4844 23.6511C12.2969 23.6511 13.8698 22.7553 16.2135 20.9532V33.5313C16.2135 34.2657 16.3802 34.823 16.7187 35.198C17.0625 35.5782 17.5156 35.7657 18.0781 35.7657C19.3437 35.7657 19.974 34.8438 19.974 32.9949V17.1563C19.9687 16.5001 19.8229 15.9688 19.5312 15.5938Z" fill="#333333"/>
<path d="M39.4691 19.026C39.068 18.151 38.5732 17.4115 37.9899 16.8177C37.4066 16.224 36.7243 15.7708 35.9535 15.4583C35.1774 15.151 34.318 15 33.3649 15C31.9326 15 30.6982 15.349 29.6566 16.0469C28.6201 16.7448 27.8285 17.7552 27.292 19.0833C26.9795 19.8854 26.7399 20.849 26.5993 21.9635C26.4482 23.0729 26.3857 24.3281 26.3857 25.7187C26.3857 26.7917 26.4482 27.7917 26.5837 28.7292C26.7139 29.651 26.9222 30.5 27.2139 31.2656C27.7816 32.6615 28.6097 33.7656 29.7243 34.5573C30.8389 35.349 32.0941 35.75 33.4899 35.75C34.7087 35.75 35.8128 35.4531 36.8128 34.8594C37.8128 34.2656 38.6149 33.4375 39.2451 32.3437C39.7451 31.4531 40.0837 30.474 40.2659 29.3854C40.4535 28.3021 40.5368 27 40.5368 25.4896C40.5264 22.6979 40.1722 20.5469 39.4691 19.026ZM36.443 29.5208C36.2451 30.6146 35.9118 31.4635 35.4326 32.0469C34.9535 32.6406 34.292 32.9375 33.443 32.9375C32.6201 32.9375 31.9691 32.651 31.4899 32.0885C31.0055 31.5208 30.667 30.6823 30.4691 29.5781C30.2712 28.474 30.167 27.0469 30.167 25.3229C30.167 22.7708 30.4014 20.875 30.8753 19.651C31.3493 18.4219 32.1982 17.8073 33.4118 17.8073C34.2607 17.8073 34.9222 18.0833 35.4066 18.6302C35.8857 19.1771 36.2243 19.9896 36.4222 21.0625C36.6201 22.1406 36.7243 23.5208 36.7243 25.2083C36.7347 26.9792 36.6409 28.4167 36.443 29.5208Z" fill="#333333"/>
</svg>
