<svg width="50" height="50" viewBox="0 0 50 50" fill="none" xmlns="http://www.w3.org/2000/svg">
<path d="M24.7969 3.2489C12.7604 3.2489 3 13.0093 3 25.0458C3 37.0822 12.7604 46.8426 24.7969 46.8426C36.8333 46.8426 46.5937 37.0822 46.5937 25.0458C46.5937 13.0093 36.8333 3.2489 24.7969 3.2489Z" fill="#8B8F6B" fill-opacity="0.5"/>
<path d="M31.4271 32.0521C31.0833 31.7865 30.5833 31.6458 29.9271 31.6458H23.3281C23.5365 31.3281 23.7396 31.0521 23.9479 30.8281C24.4219 30.2604 25.2969 29.4479 26.5521 28.4115C27.8229 27.3802 28.7292 26.6198 29.2604 26.1354C29.7969 25.651 30.3333 24.9792 30.849 24.125C31.3698 23.2708 31.625 22.3229 31.625 21.2812C31.625 20.6146 31.5052 19.9688 31.2552 19.3542C31.0052 18.7344 30.6615 18.1927 30.2135 17.7187C29.7604 17.2396 29.2448 16.8698 28.6562 16.6042C27.7552 16.1979 26.651 16 25.3646 16C24.2917 16 23.3646 16.1563 22.5677 16.474C21.776 16.7917 21.1198 17.2083 20.5937 17.7187C20.0781 18.2344 19.6875 18.8021 19.4271 19.4323C19.1719 20.0625 19.0417 20.6771 19.0417 21.2552C19.0417 21.7344 19.1771 22.1146 19.4531 22.3906C19.7292 22.6667 20.0833 22.8073 20.5052 22.8073C20.9896 22.8073 21.3542 22.651 21.6042 22.349C21.8542 22.0469 22.0781 21.6146 22.276 21.0469C22.474 20.4844 22.6094 20.1406 22.6979 20.0104C23.3281 19.0469 24.1979 18.5625 25.3021 18.5625C25.8281 18.5625 26.3021 18.6823 26.75 18.9167C27.1927 19.1458 27.5469 19.4844 27.8073 19.9062C28.0625 20.3281 28.1927 20.8125 28.1927 21.3542C28.1927 21.8594 28.0729 22.3594 27.8281 22.8854C27.5885 23.4115 27.2448 23.9115 26.776 24.401C26.3229 24.8958 25.7448 25.3854 25.0521 25.875C24.6667 26.1354 24.0156 26.6875 23.1198 27.5156C22.2135 28.3438 21.2083 29.3438 20.0833 30.5C19.8177 30.7865 19.5677 31.1823 19.3437 31.6823C19.1198 32.1823 19 32.5885 19 32.8906C19 33.3646 19.1771 33.7708 19.5312 34.125C19.8854 34.4792 20.3802 34.651 21.0052 34.651H30.3073C30.8594 34.651 31.2812 34.5052 31.5469 34.2187C31.8229 33.9323 31.9635 33.5781 31.9635 33.1667C31.9427 32.6927 31.7708 32.3229 31.4271 32.0521Z" fill="#333333"/>
</svg>
