<svg width="49" height="49" viewBox="0 0 49 49" fill="none" xmlns="http://www.w3.org/2000/svg">
<path d="M24.2969 3.2489C12.5365 3.2489 3 12.7854 3 24.5458C3 36.3114 12.5365 45.8479 24.2969 45.8479C36.0625 45.8479 45.599 36.3114 45.599 24.5458C45.599 12.7854 36.0625 3.2489 24.2969 3.2489Z" fill="#8B8F6B" fill-opacity="0.5"/>
<path d="M30.5104 27.1615C30.2865 26.6146 29.9427 26.1146 29.4948 25.6615C29.0469 25.2083 28.5 24.8021 27.8385 24.4479C28.5156 23.8854 29.0417 23.2917 29.401 22.6979C29.7604 22.099 29.9479 21.375 29.9479 20.5417C29.9479 19.9062 29.8229 19.3073 29.5729 18.7604C29.3229 18.2083 28.9479 17.7188 28.4583 17.2969C27.9583 16.8802 27.3854 16.5625 26.7031 16.3385C26.0365 16.1146 25.2865 16 24.4792 16C23.5521 16 22.7031 16.1302 21.9583 16.3958C21.2083 16.6615 20.5729 17.0156 20.0677 17.4427C19.5625 17.8802 19.1771 18.3385 18.9115 18.8177C18.6406 19.2969 18.5156 19.7604 18.5156 20.1927C18.5156 20.6458 18.651 21.0052 18.9375 21.2812C19.2188 21.5573 19.526 21.6927 19.8646 21.6927C20.1458 21.6927 20.3958 21.6406 20.6198 21.5417C20.8333 21.4375 20.9896 21.3021 21.0729 21.1302C21.2188 20.8021 21.375 20.4479 21.5469 20.0781C21.7188 19.7135 21.8958 19.4115 22.0938 19.1771C22.2813 18.9479 22.5521 18.7604 22.8854 18.6146C23.2188 18.4687 23.6406 18.3958 24.1458 18.3958C24.901 18.3958 25.5052 18.6302 25.9427 19.0938C26.3854 19.5573 26.6094 20.1146 26.6094 20.7604C26.6094 21.6094 26.3333 22.25 25.776 22.7083C25.2188 23.1615 24.5573 23.3854 23.7865 23.3854H23.2708C22.6771 23.3854 22.224 23.5052 21.9219 23.7552C21.6198 24.0052 21.4688 24.3281 21.4688 24.7344C21.4688 25.1458 21.599 25.4635 21.8438 25.6979C22.0938 25.9271 22.4531 26.0365 22.9167 26.0365C23.0208 26.0365 23.2448 26.0208 23.599 25.9896C23.9479 25.9531 24.2083 25.9375 24.3802 25.9375C25.3333 25.9375 26.0781 26.2083 26.6198 26.7708C27.151 27.3281 27.4271 28.099 27.4271 29.0781C27.4271 29.7396 27.2708 30.3229 26.9531 30.8281C26.6354 31.3333 26.2396 31.7135 25.7604 31.9687C25.2813 32.2292 24.7708 32.3594 24.2604 32.3594C23.3542 32.3594 22.651 32.0729 22.1563 31.5052C21.6563 30.9427 21.1823 30.0729 20.7552 28.9167C20.6875 28.724 20.5469 28.5521 20.3281 28.4167C20.1094 28.2812 19.8802 28.2083 19.6458 28.2083C19.1771 28.2083 18.7917 28.3594 18.474 28.6562C18.1563 28.9583 18 29.3437 18 29.8333C18 30.2135 18.1302 30.6927 18.3958 31.2656C18.6615 31.8437 19.0469 32.4115 19.5625 32.9479C20.0781 33.4896 20.7292 33.9375 21.526 34.2969C22.3281 34.6562 23.2292 34.8385 24.2344 34.8385C25.2188 34.8385 26.1198 34.6823 26.9427 34.3646C27.7708 34.0469 28.4635 33.6198 29.0677 33.0625C29.6562 32.5052 30.1146 31.8698 30.4115 31.1562C30.724 30.4427 30.8698 29.7031 30.8698 28.9427C30.8438 28.3073 30.7292 27.7135 30.5104 27.1615Z" fill="#333333"/>
</svg>
