<svg width="50" height="50" viewBox="0 0 50 50" fill="none" xmlns="http://www.w3.org/2000/svg">
<path d="M24.7969 3.2489C12.7604 3.2489 3 13.0093 3 25.0458C3 37.0822 12.7604 46.8426 24.7969 46.8426C36.8333 46.8426 46.5937 37.0822 46.5937 25.0458C46.5937 13.0093 36.8333 3.2489 24.7969 3.2489Z" fill="#8B8F6B" fill-opacity="0.5"/>
<path d="M32.1927 27.4115C31.8021 27.2292 31.2656 27.1406 30.6094 27.1406H30.0625V17.2344C30.0625 15.7448 29.4115 15 28.1094 15C27.7083 15 27.3646 15.1354 27.0781 15.4062C26.7917 15.6771 26.4323 16.1042 25.9844 16.7083L19.1979 25.7917C19.0156 26.0365 18.849 26.25 18.724 26.4219C18.5938 26.599 18.474 26.7708 18.3594 26.9583C18.2344 27.1406 18.151 27.3125 18.0885 27.4792C18.026 27.6458 18 27.8125 18 27.9687C18 28.599 18.2031 29.099 18.6146 29.4687C19.0156 29.8333 19.625 30.0156 20.4427 30.0156H26.8698V32.3958C26.8698 33.0365 27.0156 33.526 27.3125 33.849C27.6094 34.1719 27.9948 34.3385 28.4792 34.3385C28.9688 34.3385 29.3542 34.1823 29.6406 33.8542C29.9271 33.5312 30.0781 33.0417 30.0781 32.3854V30.0104H30.8542C31.5052 30.0104 31.9948 29.8958 32.3177 29.6667C32.6406 29.4375 32.8073 29.0833 32.8073 28.5833C32.7865 27.9896 32.5885 27.5937 32.1927 27.4115ZM26.8594 27.1406H21.349L26.8594 19.6979V27.1406Z" fill="#333333"/>
</svg>
