<svg width="50" height="50" viewBox="0 0 50 50" fill="none" xmlns="http://www.w3.org/2000/svg">
<path d="M24.7969 3.2489C12.7604 3.2489 3 13.0093 3 25.0458C3 37.0822 12.7604 46.8426 24.7969 46.8426C36.8333 46.8426 46.5937 37.0822 46.5937 25.0458C46.5937 13.0093 36.8333 3.2489 24.7969 3.2489Z" fill="#8B8F6B" fill-opacity="0.5"/>
<path d="M30.9635 25.0208C30.651 24.2656 30.224 23.6146 29.6719 23.0677C29.1198 22.5156 28.4896 22.0781 27.7604 21.7656C27.0312 21.4531 26.2552 21.2969 25.4219 21.2969C24.3802 21.2969 23.2396 21.625 22.0052 22.2812L22.7396 18.0573H28.9323C29.5729 18.0573 30.0625 17.9167 30.3906 17.6406C30.7187 17.3646 30.8906 17 30.8906 16.5469C30.8906 15.5156 30.2135 15 28.8542 15H21.9792C21.2292 15 20.6875 15.1667 20.3594 15.5052C20.0312 15.8438 19.7969 16.3854 19.6823 17.1302L18.5885 23.375C18.4896 23.9271 18.4479 24.224 18.4479 24.2656C18.4479 24.6562 18.6146 25.0052 18.9427 25.3177C19.2708 25.625 19.6562 25.776 20.0729 25.776C20.4635 25.776 20.9635 25.5469 21.5677 25.0937C22.1719 24.6406 22.6354 24.3177 22.9531 24.1302C23.276 23.9479 23.8073 23.8594 24.5573 23.8594C25.1615 23.8594 25.7135 24 26.2135 24.2917C26.7083 24.5885 27.099 25.0208 27.3958 25.6198C27.6875 26.2031 27.8385 26.9167 27.8385 27.7552C27.8385 28.526 27.7031 29.2187 27.4271 29.8281C27.1562 30.4323 26.7708 30.9115 26.2656 31.2552C25.7552 31.6042 25.1719 31.7812 24.5052 31.7812C23.776 31.7812 23.1146 31.5677 22.5208 31.1354C21.9323 30.7083 21.4635 30.099 21.1146 29.3281C20.7604 28.4844 20.2135 28.0625 19.4844 28.0625C19.0573 28.0625 18.7031 28.2135 18.4271 28.5156C18.1406 28.8229 18 29.1406 18 29.4792C18 30.0417 18.2031 30.6771 18.6042 31.4271C19.0052 32.1719 19.6979 32.8229 20.6615 33.401C21.6302 33.9688 22.8906 34.2656 24.4479 34.2656C25.8385 34.2656 27.0625 33.9635 28.1302 33.349C29.1979 32.7448 30.0104 31.9167 30.5781 30.8854C31.1406 29.8542 31.4219 28.7031 31.4219 27.4427C31.4323 26.5885 31.2812 25.776 30.9635 25.0208Z" fill="#333333"/>
</svg>
