<svg width="50" height="50" viewBox="0 0 50 50" fill="none" xmlns="http://www.w3.org/2000/svg">
<path d="M24.7969 3.2489C12.7604 3.2489 3 13.0093 3 25.0458C3 37.0822 12.7604 46.8426 24.7969 46.8426C36.8333 46.8426 46.5937 37.0822 46.5937 25.0458C46.5937 13.0093 36.8333 3.2489 24.7969 3.2489Z" fill="#8B8F6B" fill-opacity="0.5"/>
<path d="M31.4531 25.8125C31.1667 25.026 30.7448 24.3437 30.2135 23.7656C29.6771 23.1875 29.0521 22.7396 28.3333 22.4219C27.6198 22.1042 26.849 21.9531 26.0052 21.9531C25.125 21.9531 24.3385 22.125 23.6302 22.4687C22.9219 22.8125 22.2708 23.349 21.6615 24.0625C21.7812 21.651 22.1615 19.9844 22.8021 19.0417C23.1198 18.5781 23.5104 18.2188 23.9844 17.9427C24.4479 17.6719 24.9167 17.5365 25.3906 17.5365C25.9687 17.5365 26.4844 17.6979 26.9323 18.0156C27.375 18.3438 27.6927 18.7708 27.901 19.2969C28.0521 19.7135 28.2812 20.0417 28.6094 20.276C28.9271 20.5104 29.2708 20.6302 29.6406 20.6302C30.0677 20.6302 30.4115 20.4844 30.6927 20.1823C30.9635 19.8854 31.099 19.5573 31.099 19.1979C31.099 18.599 30.8854 17.9635 30.4375 17.3125C30.0052 16.6562 29.349 16.1042 28.4896 15.6615C27.6302 15.2135 26.6302 15 25.4948 15C24.3177 15 23.2656 15.2135 22.349 15.6615C21.4271 16.1042 20.6458 16.7552 20.0052 17.625C19.3594 18.5 18.8594 19.5833 18.5156 20.9115C18.1719 22.2344 18 23.7292 18 25.3958C18 27.4583 18.2813 29.1875 18.849 30.6094C19.4219 32.0365 20.25 33.1042 21.3281 33.8281C22.4062 34.5573 23.6927 34.9167 25.1823 34.9167C26.474 34.9167 27.6302 34.6354 28.651 34.0677C29.6771 33.4948 30.474 32.6979 31.0469 31.6823C31.6198 30.6667 31.901 29.5312 31.901 28.2812C31.8906 27.4219 31.7448 26.6042 31.4531 25.8125ZM27.4635 31.2083C26.8854 31.9427 26.1406 32.3073 25.2448 32.3073C24.3021 32.3073 23.5312 31.9062 22.9062 31.1094C22.2865 30.3125 21.9687 29.3125 21.9687 28.1198C21.9687 27.375 22.125 26.724 22.4323 26.1667C22.7396 25.6146 23.1406 25.1875 23.6406 24.901C24.1354 24.6094 24.6615 24.4635 25.2187 24.4635C25.7865 24.4635 26.3229 24.6198 26.7917 24.9271C27.2656 25.2344 27.6458 25.6771 27.9271 26.25C28.1979 26.8281 28.3333 27.5208 28.3333 28.3281C28.3437 29.5208 28.0521 30.4844 27.4635 31.2083Z" fill="#333333"/>
</svg>
