<svg width="50" height="50" viewBox="0 0 50 50" fill="none" xmlns="http://www.w3.org/2000/svg">
<path d="M24.7969 3.2489C12.7604 3.2489 3 13.0093 3 25.0458C3 37.0822 12.7604 46.8426 24.7969 46.8426C36.8333 46.8426 46.5937 37.0822 46.5937 25.0458C46.5937 13.0093 36.8333 3.2489 24.7969 3.2489Z" fill="#8B8F6B" fill-opacity="0.5"/>
<path d="M31.0417 15.401C30.6562 15.1354 30.0312 15 29.1719 15H20.2344C19.5313 15 18.9792 15.0885 18.5833 15.2656C18.1927 15.4479 18 15.8385 18 16.4531C18 17.0313 18.1823 17.4635 18.5573 17.7344C18.9323 18.0104 19.4948 18.151 20.2448 18.151H27.4219C26.2969 19.5781 25.3281 21.0156 24.5 22.4635C23.6875 23.9115 23 25.3177 22.4583 26.6823C21.9115 28.0573 21.5156 29.2396 21.276 30.2187C21.0417 31.1979 20.9115 31.9792 20.9115 32.5521C20.9115 33.2969 21.0781 33.8542 21.4062 34.2396C21.7344 34.6146 22.1771 34.8073 22.724 34.8073C23.2917 34.8073 23.7604 34.6354 24.099 34.276C24.4479 33.9167 24.7135 33.2865 24.8958 32.3802C24.9792 31.9844 25.0677 31.4167 25.1771 30.6771C25.2917 29.9375 25.3802 29.3281 25.474 28.8646C25.5625 28.3958 25.7083 27.8125 25.9323 27.1042C26.4427 25.5 27 24.1458 27.6146 23.0417C28.2292 21.9323 28.8229 21.0052 29.401 20.2552C29.9792 19.5052 30.4896 18.8281 30.9375 18.2135C31.3906 17.599 31.6146 17.0937 31.6146 16.7187C31.6146 16.1146 31.4271 15.6667 31.0417 15.401Z" fill="#333333"/>
</svg>
