<svg width="50" height="50" viewBox="0 0 50 50" fill="none" xmlns="http://www.w3.org/2000/svg">
<path d="M24.7969 3.2489C12.7604 3.2489 3 13.0093 3 25.0458C3 37.0822 12.7604 46.8426 24.7969 46.8426C36.8333 46.8426 46.5937 37.0822 46.5937 25.0458C46.5937 13.0093 36.8333 3.2489 24.7969 3.2489Z" fill="#8B8F6B" fill-opacity="0.5"/>
<path d="M31.2292 26.724C30.9792 26.1042 30.6146 25.5677 30.1198 25.099C29.6302 24.6302 29.0156 24.2552 28.276 23.9635C29.151 23.5365 29.8021 22.9896 30.2396 22.3125C30.6771 21.6406 30.8958 20.875 30.8958 20.026C30.8958 19.3594 30.7708 18.724 30.5208 18.125C30.2708 17.526 29.8802 16.9896 29.3646 16.5208C28.8385 16.0469 28.1823 15.6719 27.401 15.401C26.6146 15.1354 25.7031 15 24.6667 15C23.4375 15 22.3646 15.2344 21.4427 15.6979C20.526 16.1615 19.8281 16.776 19.3542 17.5469C18.8854 18.3125 18.6406 19.1354 18.6406 20.0104C18.6406 21.8125 19.5365 23.1354 21.3229 23.974C19.1042 24.849 18 26.4531 18 28.8021C18 29.901 18.2604 30.8906 18.7865 31.776C19.3125 32.6562 20.0781 33.3542 21.1146 33.8646C22.1406 34.3698 23.3802 34.6198 24.8281 34.6198C26.2188 34.6198 27.4323 34.3698 28.4635 33.8646C29.4896 33.3542 30.2708 32.6562 30.8021 31.7656C31.3333 30.8698 31.5937 29.875 31.5937 28.776C31.6042 28.0156 31.4792 27.3281 31.2292 26.724ZM22.7656 18.2604C23.2656 17.75 23.9271 17.4896 24.75 17.4896C25.2917 17.4896 25.7656 17.6094 26.1875 17.849C26.6042 18.0885 26.9271 18.4115 27.1562 18.8125C27.3906 19.224 27.5052 19.6875 27.5052 20.1979C27.5052 20.5781 27.4427 20.9271 27.3073 21.25C27.1771 21.5729 27 21.8385 26.7552 22.0729C26.5156 22.3021 26.2292 22.4792 25.8906 22.6146C25.5521 22.75 25.1875 22.8125 24.776 22.8125C23.9635 22.8125 23.3021 22.5625 22.7865 22.0729C22.2656 21.5781 22.0156 20.9635 22.0156 20.224C22.0156 19.4271 22.2656 18.7656 22.7656 18.2604ZM27.6042 30.4635C27.3281 30.9896 26.9427 31.3906 26.4531 31.6771C25.9635 31.9635 25.4167 32.1042 24.8021 32.1042C24.2031 32.1042 23.6615 31.9635 23.1667 31.6771C22.6771 31.3906 22.2917 30.9896 22.0052 30.4687C21.724 29.9531 21.5781 29.3542 21.5781 28.6771C21.5781 27.6146 21.8802 26.7865 22.4792 26.1927C23.0781 25.6042 23.8281 25.3021 24.7135 25.3021C25.3385 25.3021 25.9062 25.4375 26.4062 25.7031C26.9167 25.974 27.3073 26.3646 27.5885 26.8646C27.8646 27.375 28.0052 27.9635 28.0052 28.6406C28.0052 29.3177 27.8802 29.9427 27.6042 30.4635Z" fill="#333333"/>
</svg>
