<svg width="50" height="50" viewBox="0 0 50 50" fill="none" xmlns="http://www.w3.org/2000/svg">
<path d="M24.7969 3.2489C12.7604 3.2489 3 13.0093 3 25.0458C3 37.0822 12.7604 46.8426 24.7969 46.8426C36.8333 46.8426 46.5937 37.0822 46.5937 25.0458C46.5937 13.0093 36.8333 3.2489 24.7969 3.2489Z" fill="#8B8F6B" fill-opacity="0.5"/>
<path d="M32.4022 19.8336C32.0555 18.536 31.5465 17.4677 30.8921 16.6176C30.2433 15.773 29.4323 15.1186 28.4703 14.6712C27.5027 14.2237 26.412 14 25.1871 14C24.1244 14 23.1512 14.1846 22.2619 14.5425C21.3894 14.9061 20.6288 15.4095 19.9855 16.0527C19.3535 16.6959 18.8557 17.4677 18.5146 18.3458C18.1734 19.2184 18 20.1524 18 21.1312C18 22.0429 18.1566 22.9098 18.4586 23.7488C18.7551 24.5766 19.1969 25.3093 19.7618 25.9301C20.3267 26.5565 20.9979 27.0431 21.7753 27.3843C22.5584 27.7311 23.3862 27.8989 24.2811 27.8989C25.2263 27.8989 26.082 27.7143 26.8539 27.334C27.6313 26.9536 28.3305 26.3999 28.9569 25.656C28.8171 28.24 28.4088 30.0298 27.7264 31.0534C27.3852 31.5623 26.9713 31.9483 26.4903 32.2223C26.0037 32.4964 25.4892 32.6306 24.9522 32.6306C24.337 32.6306 23.7945 32.4572 23.3134 32.1161C22.8268 31.7637 22.4857 31.3051 22.2731 30.7402C22.0997 30.2759 21.8536 29.9236 21.5125 29.6887C21.1825 29.4593 20.8021 29.3419 20.3827 29.3419C19.924 29.3419 19.5549 29.4985 19.2529 29.8061C18.962 30.1193 18.8166 30.4773 18.8166 30.88C18.8166 31.5232 19.0515 32.1944 19.5269 32.8935C20.0023 33.5982 20.6959 34.1799 21.6131 34.6497C22.5248 35.114 23.5987 35.3601 24.8348 35.3601C26.0932 35.3601 27.2118 35.1251 28.2074 34.6665C29.1974 34.2079 30.0475 33.4976 30.7467 32.5523C31.457 31.6071 31.9939 30.4381 32.3631 29.0454C32.7378 27.6528 32.9224 26.0475 32.9224 24.2186C32.9392 22.6022 32.7546 21.1312 32.4022 19.8336ZM28.1403 23.3908C27.7991 23.9837 27.3573 24.4311 26.8203 24.7332C26.289 25.0464 25.7241 25.203 25.1256 25.203C24.1636 25.203 23.375 24.8227 22.7429 24.0732C22.1165 23.3181 21.7977 22.3058 21.7977 21.0417C21.7977 19.7665 22.1109 18.743 22.7429 17.9655C23.3638 17.1825 24.1356 16.8021 25.0417 16.8021C25.5675 16.8021 26.0429 16.9196 26.4903 17.1433C26.9378 17.367 27.3125 17.6914 27.6313 18.0886C27.9501 18.4913 28.1962 18.9667 28.3696 19.5148C28.5486 20.0573 28.6325 20.6502 28.6325 21.3046C28.6437 22.1044 28.4703 22.8035 28.1403 23.3908Z" fill="#333333"/>
</svg>
