<svg width="211" height="50" viewBox="0 0 211 50" fill="none" xmlns="http://www.w3.org/2000/svg">
<g filter="url(#filter0_d_48_3360)">
<rect x="4.875" width="202" height="42" rx="5" fill="#AD5315" shape-rendering="crispEdges"/>
<path d="M22.783 26.64C22.0177 26.64 21.313 26.514 20.669 26.262C20.025 26.01 19.465 25.66 18.989 25.212C18.513 24.7547 18.1443 24.2227 17.883 23.616C17.6217 23 17.491 22.328 17.491 21.6C17.491 20.872 17.6217 20.2047 17.883 19.598C18.1443 18.982 18.513 18.45 18.989 18.002C19.465 17.5447 20.025 17.19 20.669 16.938C21.313 16.686 22.013 16.56 22.769 16.56C23.5343 16.56 24.2343 16.686 24.869 16.938C25.513 17.19 26.073 17.5447 26.549 18.002C27.025 18.45 27.3937 18.982 27.655 19.598C27.9163 20.2047 28.047 20.872 28.047 21.6C28.047 22.328 27.9163 23 27.655 23.616C27.3937 24.232 27.025 24.764 26.549 25.212C26.073 25.66 25.513 26.01 24.869 26.262C24.2343 26.514 23.539 26.64 22.783 26.64ZM22.769 25.044C23.2637 25.044 23.721 24.96 24.141 24.792C24.561 24.624 24.925 24.386 25.233 24.078C25.541 23.7607 25.779 23.3967 25.947 22.986C26.1243 22.566 26.213 22.104 26.213 21.6C26.213 21.096 26.1243 20.6387 25.947 20.228C25.779 19.808 25.541 19.444 25.233 19.136C24.925 18.8187 24.561 18.576 24.141 18.408C23.721 18.24 23.2637 18.156 22.769 18.156C22.2743 18.156 21.817 18.24 21.397 18.408C20.9863 18.576 20.6223 18.8187 20.305 19.136C19.997 19.444 19.7543 19.808 19.577 20.228C19.409 20.6387 19.325 21.096 19.325 21.6C19.325 22.0947 19.409 22.552 19.577 22.972C19.7543 23.392 19.997 23.7607 20.305 24.078C20.613 24.386 20.977 24.624 21.397 24.792C21.817 24.96 22.2743 25.044 22.769 25.044ZM24.127 15.748C23.8937 15.748 23.693 15.6733 23.525 15.524C23.3663 15.3653 23.287 15.16 23.287 14.908C23.287 14.656 23.3663 14.4507 23.525 14.292C23.693 14.1333 23.8937 14.054 24.127 14.054C24.3603 14.054 24.5563 14.1333 24.715 14.292C24.883 14.4507 24.967 14.656 24.967 14.908C24.967 15.16 24.883 15.3653 24.715 15.524C24.5563 15.6733 24.3603 15.748 24.127 15.748ZM21.411 15.748C21.1777 15.748 20.977 15.6733 20.809 15.524C20.6503 15.3653 20.571 15.16 20.571 14.908C20.571 14.656 20.6503 14.4507 20.809 14.292C20.977 14.1333 21.1777 14.054 21.411 14.054C21.6443 14.054 21.8403 14.1333 21.999 14.292C22.167 14.4507 22.251 14.656 22.251 14.908C22.251 15.16 22.167 15.3653 21.999 15.524C21.8403 15.6733 21.6443 15.748 21.411 15.748ZM30.0462 26.5V18.604C30.0462 17.82 30.2748 17.1947 30.7322 16.728C31.1988 16.252 31.8615 16.014 32.7202 16.014C33.0282 16.014 33.3175 16.0467 33.5882 16.112C33.8682 16.1773 34.1015 16.28 34.2882 16.42L33.8122 17.736C33.6815 17.6333 33.5322 17.5587 33.3642 17.512C33.1962 17.456 33.0235 17.428 32.8462 17.428C32.4822 17.428 32.2068 17.5307 32.0202 17.736C31.8335 17.932 31.7402 18.2307 31.7402 18.632V19.472L31.7962 20.256V26.5H30.0462ZM28.8142 20.48V19.08H33.7982V20.48H28.8142ZM35.2551 26.5V18.604C35.2551 17.82 35.4838 17.1947 35.9411 16.728C36.4078 16.252 37.0705 16.014 37.9291 16.014C38.2371 16.014 38.5265 16.0467 38.7971 16.112C39.0771 16.1773 39.3105 16.28 39.4971 16.42L39.0211 17.736C38.8905 17.6333 38.7411 17.5587 38.5731 17.512C38.4051 17.456 38.2325 17.428 38.0551 17.428C37.6911 17.428 37.4158 17.5307 37.2291 17.736C37.0425 17.932 36.9491 18.2307 36.9491 18.632V19.472L37.0051 20.256V26.5H35.2551ZM34.0231 20.48V19.08H39.0071V20.48H34.0231ZM43.3491 26.598C42.7144 26.598 42.1544 26.4813 41.6691 26.248C41.1838 26.0053 40.8058 25.6413 40.5351 25.156C40.2644 24.6613 40.1291 24.0407 40.1291 23.294V19.024H41.8791V23.056C41.8791 23.728 42.0284 24.232 42.3271 24.568C42.6351 24.8947 43.0691 25.058 43.6291 25.058C44.0398 25.058 44.3944 24.974 44.6931 24.806C45.0011 24.638 45.2391 24.386 45.4071 24.05C45.5844 23.714 45.6731 23.2987 45.6731 22.804V19.024H47.4231V26.5H45.7571V24.484L46.0511 25.1C45.7991 25.5853 45.4304 25.9587 44.9451 26.22C44.4598 26.472 43.9278 26.598 43.3491 26.598ZM53.9564 18.94C54.5537 18.94 55.0857 19.0567 55.5524 19.29C56.0284 19.5233 56.4017 19.8827 56.6724 20.368C56.9431 20.844 57.0784 21.46 57.0784 22.216V26.5H55.3284V22.44C55.3284 21.7773 55.1697 21.2827 54.8524 20.956C54.5444 20.6293 54.1104 20.466 53.5504 20.466C53.1397 20.466 52.7757 20.55 52.4584 20.718C52.1411 20.886 51.8937 21.138 51.7164 21.474C51.5484 21.8007 51.4644 22.216 51.4644 22.72V26.5H49.7144V19.024H51.3804V21.04L51.0864 20.424C51.3477 19.948 51.7257 19.584 52.2204 19.332C52.7244 19.0707 53.3031 18.94 53.9564 18.94ZM62.7001 29.314C62.0094 29.314 61.3327 29.2207 60.6701 29.034C60.0167 28.8567 59.4801 28.5953 59.0601 28.25L59.8441 26.934C60.1707 27.2047 60.5814 27.4193 61.0761 27.578C61.5801 27.746 62.0887 27.83 62.6021 27.83C63.4234 27.83 64.0254 27.6387 64.4081 27.256C64.7907 26.8827 64.9821 26.318 64.9821 25.562V24.232L65.1221 22.538L65.0661 20.844V19.024H66.7321V25.366C66.7321 26.7193 66.3867 27.7133 65.6961 28.348C65.0054 28.992 64.0067 29.314 62.7001 29.314ZM62.4761 26.164C61.7667 26.164 61.1227 26.0147 60.5441 25.716C59.9747 25.408 59.5221 24.9833 59.1861 24.442C58.8594 23.9007 58.6961 23.266 58.6961 22.538C58.6961 21.8193 58.8594 21.1893 59.1861 20.648C59.5221 20.1067 59.9747 19.6867 60.5441 19.388C61.1227 19.0893 61.7667 18.94 62.4761 18.94C63.1107 18.94 63.6801 19.066 64.1841 19.318C64.6881 19.57 65.0894 19.962 65.3881 20.494C65.6961 21.026 65.8501 21.7073 65.8501 22.538C65.8501 23.3687 65.6961 24.0547 65.3881 24.596C65.0894 25.128 64.6881 25.5247 64.1841 25.786C63.6801 26.038 63.1107 26.164 62.4761 26.164ZM62.7421 24.68C63.1807 24.68 63.5727 24.5913 63.9181 24.414C64.2634 24.2273 64.5294 23.9753 64.7161 23.658C64.9121 23.3313 65.0101 22.958 65.0101 22.538C65.0101 22.118 64.9121 21.7493 64.7161 21.432C64.5294 21.1053 64.2634 20.858 63.9181 20.69C63.5727 20.5127 63.1807 20.424 62.7421 20.424C62.3034 20.424 61.9067 20.5127 61.5521 20.69C61.2067 20.858 60.9361 21.1053 60.7401 21.432C60.5534 21.7493 60.4601 22.118 60.4601 22.538C60.4601 22.958 60.5534 23.3313 60.7401 23.658C60.9361 23.9753 61.2067 24.2273 61.5521 24.414C61.9067 24.5913 62.3034 24.68 62.7421 24.68ZM71.3428 26.598C70.7174 26.598 70.1154 26.5187 69.5368 26.36C68.9674 26.192 68.5148 25.9913 68.1788 25.758L68.8508 24.428C69.1868 24.6427 69.5881 24.82 70.0548 24.96C70.5214 25.1 70.9881 25.17 71.4548 25.17C72.0054 25.17 72.4021 25.0953 72.6448 24.946C72.8968 24.7967 73.0228 24.596 73.0228 24.344C73.0228 24.1387 72.9388 23.9847 72.7708 23.882C72.6028 23.77 72.3834 23.686 72.1128 23.63C71.8421 23.574 71.5388 23.5227 71.2028 23.476C70.8761 23.4293 70.5448 23.3687 70.2088 23.294C69.8821 23.21 69.5834 23.0933 69.3128 22.944C69.0421 22.7853 68.8228 22.5753 68.6548 22.314C68.4868 22.0527 68.4028 21.7073 68.4028 21.278C68.4028 20.802 68.5381 20.3913 68.8088 20.046C69.0794 19.6913 69.4574 19.4207 69.9428 19.234C70.4374 19.038 71.0208 18.94 71.6928 18.94C72.1968 18.94 72.7054 18.996 73.2188 19.108C73.7321 19.22 74.1568 19.3787 74.4928 19.584L73.8208 20.914C73.4661 20.6993 73.1068 20.5547 72.7428 20.48C72.3881 20.396 72.0334 20.354 71.6788 20.354C71.1468 20.354 70.7501 20.4333 70.4888 20.592C70.2368 20.7507 70.1108 20.9513 70.1108 21.194C70.1108 21.418 70.1948 21.586 70.3628 21.698C70.5308 21.81 70.7501 21.8987 71.0208 21.964C71.2914 22.0293 71.5901 22.0853 71.9168 22.132C72.2528 22.1693 72.5841 22.23 72.9108 22.314C73.2374 22.398 73.5361 22.5147 73.8068 22.664C74.0868 22.804 74.3108 23.0047 74.4788 23.266C74.6468 23.5273 74.7308 23.868 74.7308 24.288C74.7308 24.7547 74.5908 25.1607 74.3108 25.506C74.0401 25.8513 73.6528 26.122 73.1488 26.318C72.6448 26.5047 72.0428 26.598 71.3428 26.598ZM75.6218 26.5V25.394L80.2278 19.822L80.5498 20.424H75.7058V19.024H81.9498V20.13L77.3438 25.702L76.9938 25.1H82.0758V26.5H75.6218ZM87.0936 26.598C86.263 26.598 85.535 26.4347 84.9096 26.108C84.2936 25.772 83.813 25.3147 83.4676 24.736C83.1316 24.1573 82.9636 23.4993 82.9636 22.762C82.9636 22.0153 83.127 21.3573 83.4536 20.788C83.7896 20.2093 84.247 19.7567 84.8256 19.43C85.4136 19.1033 86.081 18.94 86.8276 18.94C87.5556 18.94 88.2043 19.0987 88.7736 19.416C89.343 19.7333 89.791 20.1813 90.1176 20.76C90.4443 21.3387 90.6076 22.02 90.6076 22.804C90.6076 22.8787 90.603 22.9627 90.5936 23.056C90.5936 23.1493 90.589 23.238 90.5796 23.322H84.3496V22.16H89.6556L88.9696 22.524C88.979 22.0947 88.8903 21.7167 88.7036 21.39C88.517 21.0633 88.2603 20.8067 87.9336 20.62C87.6163 20.4333 87.2476 20.34 86.8276 20.34C86.3983 20.34 86.0203 20.4333 85.6936 20.62C85.3763 20.8067 85.1243 21.068 84.9376 21.404C84.7603 21.7307 84.6716 22.118 84.6716 22.566V22.846C84.6716 23.294 84.7743 23.6907 84.9796 24.036C85.185 24.3813 85.4743 24.6473 85.8476 24.834C86.221 25.0207 86.6503 25.114 87.1356 25.114C87.5556 25.114 87.9336 25.0487 88.2696 24.918C88.6056 24.7873 88.9043 24.582 89.1656 24.302L90.1036 25.38C89.7676 25.772 89.343 26.0753 88.8296 26.29C88.3256 26.4953 87.747 26.598 87.0936 26.598ZM92.2886 26.5V19.024H94.0386V26.5H92.2886ZM93.1706 17.792C92.844 17.792 92.5733 17.6893 92.3586 17.484C92.1533 17.2787 92.0506 17.0313 92.0506 16.742C92.0506 16.4433 92.1533 16.196 92.3586 16C92.5733 15.7947 92.844 15.692 93.1706 15.692C93.4973 15.692 93.7633 15.79 93.9686 15.986C94.1833 16.1727 94.2906 16.4107 94.2906 16.7C94.2906 17.008 94.188 17.2693 93.9826 17.484C93.7773 17.6893 93.5066 17.792 93.1706 17.792ZM99.1495 26.598C98.3282 26.598 97.6935 26.388 97.2455 25.968C96.7975 25.5387 96.5735 24.9087 96.5735 24.078V17.372H98.3235V24.036C98.3235 24.3907 98.4122 24.666 98.5895 24.862C98.7762 25.058 99.0328 25.156 99.3595 25.156C99.7515 25.156 100.078 25.0533 100.34 24.848L100.83 26.094C100.624 26.262 100.372 26.388 100.074 26.472C99.7748 26.556 99.4668 26.598 99.1495 26.598ZM95.3415 20.48V19.08H100.326V20.48H95.3415ZM105.537 26.598C104.706 26.598 103.978 26.4347 103.353 26.108C102.737 25.772 102.256 25.3147 101.911 24.736C101.575 24.1573 101.407 23.4993 101.407 22.762C101.407 22.0153 101.57 21.3573 101.897 20.788C102.233 20.2093 102.69 19.7567 103.269 19.43C103.857 19.1033 104.524 18.94 105.271 18.94C105.999 18.94 106.648 19.0987 107.217 19.416C107.786 19.7333 108.234 20.1813 108.561 20.76C108.888 21.3387 109.051 22.02 109.051 22.804C109.051 22.8787 109.046 22.9627 109.037 23.056C109.037 23.1493 109.032 23.238 109.023 23.322H102.793V22.16H108.099L107.413 22.524C107.422 22.0947 107.334 21.7167 107.147 21.39C106.96 21.0633 106.704 20.8067 106.377 20.62C106.06 20.4333 105.691 20.34 105.271 20.34C104.842 20.34 104.464 20.4333 104.137 20.62C103.82 20.8067 103.568 21.068 103.381 21.404C103.204 21.7307 103.115 22.118 103.115 22.566V22.846C103.115 23.294 103.218 23.6907 103.423 24.036C103.628 24.3813 103.918 24.6473 104.291 24.834C104.664 25.0207 105.094 25.114 105.579 25.114C105.999 25.114 106.377 25.0487 106.713 24.918C107.049 24.7873 107.348 24.582 107.609 24.302L108.547 25.38C108.211 25.772 107.786 26.0753 107.273 26.29C106.769 26.4953 106.19 26.598 105.537 26.598ZM114.974 18.94C115.571 18.94 116.103 19.0567 116.57 19.29C117.046 19.5233 117.419 19.8827 117.69 20.368C117.961 20.844 118.096 21.46 118.096 22.216V26.5H116.346V22.44C116.346 21.7773 116.187 21.2827 115.87 20.956C115.562 20.6293 115.128 20.466 114.568 20.466C114.157 20.466 113.793 20.55 113.476 20.718C113.159 20.886 112.911 21.138 112.734 21.474C112.566 21.8007 112.482 22.216 112.482 22.72V26.5H110.732V19.024H112.398V21.04L112.104 20.424C112.365 19.948 112.743 19.584 113.238 19.332C113.742 19.0707 114.321 18.94 114.974 18.94ZM127.181 26.64C126.5 26.64 125.888 26.528 125.347 26.304C124.806 26.08 124.381 25.772 124.073 25.38C123.765 24.988 123.611 24.5353 123.611 24.022C123.611 23.5553 123.714 23.1353 123.919 22.762C124.124 22.3887 124.451 22.034 124.899 21.698C125.347 21.3527 125.921 21.0073 126.621 20.662C127.172 20.3913 127.601 20.1533 127.909 19.948C128.226 19.7427 128.446 19.5467 128.567 19.36C128.698 19.1733 128.763 18.9773 128.763 18.772C128.763 18.492 128.665 18.268 128.469 18.1C128.273 17.9227 127.993 17.834 127.629 17.834C127.237 17.834 126.929 17.932 126.705 18.128C126.49 18.3147 126.383 18.562 126.383 18.87C126.383 19.0287 126.411 19.1827 126.467 19.332C126.532 19.4813 126.644 19.6493 126.803 19.836C126.962 20.0227 127.19 20.2607 127.489 20.55L132.669 25.52L131.703 26.654L126.103 21.278C125.786 20.97 125.529 20.6853 125.333 20.424C125.137 20.1627 124.997 19.9107 124.913 19.668C124.829 19.416 124.787 19.1593 124.787 18.898C124.787 18.4407 124.904 18.0393 125.137 17.694C125.37 17.3393 125.702 17.0687 126.131 16.882C126.56 16.686 127.06 16.588 127.629 16.588C128.161 16.588 128.618 16.6767 129.001 16.854C129.393 17.022 129.696 17.2693 129.911 17.596C130.135 17.9133 130.247 18.296 130.247 18.744C130.247 19.136 130.149 19.5 129.953 19.836C129.757 20.1627 129.449 20.4753 129.029 20.774C128.618 21.0727 128.068 21.3853 127.377 21.712C126.864 21.964 126.458 22.202 126.159 22.426C125.86 22.65 125.646 22.874 125.515 23.098C125.384 23.322 125.319 23.5693 125.319 23.84C125.319 24.1107 125.398 24.3487 125.557 24.554C125.725 24.7593 125.958 24.9227 126.257 25.044C126.556 25.156 126.906 25.212 127.307 25.212C127.904 25.212 128.446 25.0813 128.931 24.82C129.426 24.5493 129.841 24.148 130.177 23.616C130.513 23.084 130.756 22.426 130.905 21.642L132.319 22.104C132.123 23.0467 131.782 23.8587 131.297 24.54C130.821 25.212 130.233 25.73 129.533 26.094C128.833 26.458 128.049 26.64 127.181 26.64ZM139.731 24.19L139.633 22.034L144.771 16.7H146.815L142.545 21.236L141.537 22.342L139.731 24.19ZM138.107 26.5V16.7H139.927V26.5H138.107ZM144.939 26.5L141.187 22.034L142.391 20.704L147.067 26.5H144.939ZM151.17 26.598C150.405 26.598 149.723 26.4347 149.126 26.108C148.529 25.772 148.057 25.3147 147.712 24.736C147.367 24.1573 147.194 23.4993 147.194 22.762C147.194 22.0153 147.367 21.3573 147.712 20.788C148.057 20.2093 148.529 19.7567 149.126 19.43C149.723 19.1033 150.405 18.94 151.17 18.94C151.945 18.94 152.631 19.1033 153.228 19.43C153.835 19.7567 154.306 20.2047 154.642 20.774C154.987 21.3433 155.16 22.006 155.16 22.762C155.16 23.4993 154.987 24.1573 154.642 24.736C154.306 25.3147 153.835 25.772 153.228 26.108C152.631 26.4347 151.945 26.598 151.17 26.598ZM151.17 25.1C151.599 25.1 151.982 25.0067 152.318 24.82C152.654 24.6333 152.915 24.3627 153.102 24.008C153.298 23.6533 153.396 23.238 153.396 22.762C153.396 22.2767 153.298 21.8613 153.102 21.516C152.915 21.1613 152.654 20.8907 152.318 20.704C151.982 20.5173 151.604 20.424 151.184 20.424C150.755 20.424 150.372 20.5173 150.036 20.704C149.709 20.8907 149.448 21.1613 149.252 21.516C149.056 21.8613 148.958 22.2767 148.958 22.762C148.958 23.238 149.056 23.6533 149.252 24.008C149.448 24.3627 149.709 24.6333 150.036 24.82C150.372 25.0067 150.75 25.1 151.17 25.1ZM161.076 18.94C161.673 18.94 162.205 19.0567 162.672 19.29C163.148 19.5233 163.521 19.8827 163.792 20.368C164.062 20.844 164.198 21.46 164.198 22.216V26.5H162.448V22.44C162.448 21.7773 162.289 21.2827 161.972 20.956C161.664 20.6293 161.23 20.466 160.67 20.466C160.259 20.466 159.895 20.55 159.578 20.718C159.26 20.886 159.013 21.138 158.836 21.474C158.668 21.8007 158.584 22.216 158.584 22.72V26.5H156.834V19.024H158.5V21.04L158.206 20.424C158.467 19.948 158.845 19.584 159.34 19.332C159.844 19.0707 160.422 18.94 161.076 18.94ZM169.232 26.598C168.41 26.598 167.776 26.388 167.328 25.968C166.88 25.5387 166.656 24.9087 166.656 24.078V17.372H168.406V24.036C168.406 24.3907 168.494 24.666 168.672 24.862C168.858 25.058 169.115 25.156 169.442 25.156C169.834 25.156 170.16 25.0533 170.422 24.848L170.912 26.094C170.706 26.262 170.454 26.388 170.156 26.472C169.857 26.556 169.549 26.598 169.232 26.598ZM165.424 20.48V19.08H170.408V20.48H165.424ZM176.957 26.5V24.988L176.859 24.666V22.02C176.859 21.5067 176.705 21.11 176.397 20.83C176.089 20.5407 175.622 20.396 174.997 20.396C174.577 20.396 174.162 20.4613 173.751 20.592C173.35 20.7227 173.009 20.9047 172.729 21.138L172.043 19.864C172.444 19.556 172.92 19.3273 173.471 19.178C174.031 19.0193 174.61 18.94 175.207 18.94C176.29 18.94 177.125 19.2013 177.713 19.724C178.31 20.2373 178.609 21.0353 178.609 22.118V26.5H176.957ZM174.605 26.598C174.045 26.598 173.555 26.5047 173.135 26.318C172.715 26.122 172.388 25.856 172.155 25.52C171.931 25.1747 171.819 24.7873 171.819 24.358C171.819 23.938 171.917 23.56 172.113 23.224C172.318 22.888 172.65 22.622 173.107 22.426C173.564 22.23 174.171 22.132 174.927 22.132H177.097V23.294H175.053C174.456 23.294 174.054 23.392 173.849 23.588C173.644 23.7747 173.541 24.008 173.541 24.288C173.541 24.6053 173.667 24.8573 173.919 25.044C174.171 25.2307 174.521 25.324 174.969 25.324C175.398 25.324 175.781 25.226 176.117 25.03C176.462 24.834 176.71 24.5447 176.859 24.162L177.153 25.212C176.985 25.6507 176.682 25.9913 176.243 26.234C175.814 26.4767 175.268 26.598 174.605 26.598ZM182.283 24.834L182.325 22.636L186.231 19.024H188.331L185.013 22.356L184.089 23.126L182.283 24.834ZM180.855 26.5V16.112H182.605V26.5H180.855ZM186.497 26.5L183.767 23.126L184.873 21.726L188.625 26.5H186.497ZM192.569 26.598C191.748 26.598 191.113 26.388 190.665 25.968C190.217 25.5387 189.993 24.9087 189.993 24.078V17.372H191.743V24.036C191.743 24.3907 191.832 24.666 192.009 24.862C192.196 25.058 192.453 25.156 192.779 25.156C193.171 25.156 193.498 25.0533 193.759 24.848L194.249 26.094C194.044 26.262 193.792 26.388 193.493 26.472C193.195 26.556 192.887 26.598 192.569 26.598ZM188.761 20.48V19.08H193.745V20.48H188.761Z" fill="#F5F1E9"/>
</g>
<defs>
<filter id="filter0_d_48_3360" x="0.875" y="0" width="210" height="50" filterUnits="userSpaceOnUse" color-interpolation-filters="sRGB">
<feFlood flood-opacity="0" result="BackgroundImageFix"/>
<feColorMatrix in="SourceAlpha" type="matrix" values="0 0 0 0 0 0 0 0 0 0 0 0 0 0 0 0 0 0 127 0" result="hardAlpha"/>
<feOffset dy="4"/>
<feGaussianBlur stdDeviation="2"/>
<feComposite in2="hardAlpha" operator="out"/>
<feColorMatrix type="matrix" values="0 0 0 0 0 0 0 0 0 0 0 0 0 0 0 0 0 0 0.25 0"/>
<feBlend mode="normal" in2="BackgroundImageFix" result="effect1_dropShadow_48_3360"/>
<feBlend mode="normal" in="SourceGraphic" in2="effect1_dropShadow_48_3360" result="shape"/>
</filter>
</defs>
</svg>
