<svg width="210" height="50" viewBox="0 0 210 50" fill="none" xmlns="http://www.w3.org/2000/svg">
<g filter="url(#filter0_d_48_3327)">
<rect x="4" width="202" height="42" rx="5" fill="#AD5315" shape-rendering="crispEdges"/>
<path d="M34.94 24.19L34.842 22.034L39.98 16.7H42.024L37.754 21.236L36.746 22.342L34.94 24.19ZM33.316 26.5V16.7H35.136V26.5H33.316ZM40.148 26.5L36.396 22.034L37.6 20.704L42.276 26.5H40.148ZM46.3791 26.598C45.6138 26.598 44.9324 26.4347 44.3351 26.108C43.7378 25.772 43.2664 25.3147 42.9211 24.736C42.5758 24.1573 42.4031 23.4993 42.4031 22.762C42.4031 22.0153 42.5758 21.3573 42.9211 20.788C43.2664 20.2093 43.7378 19.7567 44.3351 19.43C44.9324 19.1033 45.6138 18.94 46.3791 18.94C47.1538 18.94 47.8398 19.1033 48.4371 19.43C49.0438 19.7567 49.5151 20.2047 49.8511 20.774C50.1964 21.3433 50.3691 22.006 50.3691 22.762C50.3691 23.4993 50.1964 24.1573 49.8511 24.736C49.5151 25.3147 49.0438 25.772 48.4371 26.108C47.8398 26.4347 47.1538 26.598 46.3791 26.598ZM46.3791 25.1C46.8084 25.1 47.1911 25.0067 47.5271 24.82C47.8631 24.6333 48.1244 24.3627 48.3111 24.008C48.5071 23.6533 48.6051 23.238 48.6051 22.762C48.6051 22.2767 48.5071 21.8613 48.3111 21.516C48.1244 21.1613 47.8631 20.8907 47.5271 20.704C47.1911 20.5173 46.8131 20.424 46.3931 20.424C45.9638 20.424 45.5811 20.5173 45.2451 20.704C44.9184 20.8907 44.6571 21.1613 44.4611 21.516C44.2651 21.8613 44.1671 22.2767 44.1671 22.762C44.1671 23.238 44.2651 23.6533 44.4611 24.008C44.6571 24.3627 44.9184 24.6333 45.2451 24.82C45.5811 25.0067 45.9591 25.1 46.3791 25.1ZM56.2845 18.94C56.8819 18.94 57.4139 19.0567 57.8805 19.29C58.3565 19.5233 58.7299 19.8827 59.0005 20.368C59.2712 20.844 59.4065 21.46 59.4065 22.216V26.5H57.6565V22.44C57.6565 21.7773 57.4979 21.2827 57.1805 20.956C56.8725 20.6293 56.4385 20.466 55.8785 20.466C55.4679 20.466 55.1039 20.55 54.7865 20.718C54.4692 20.886 54.2219 21.138 54.0445 21.474C53.8765 21.8007 53.7925 22.216 53.7925 22.72V26.5H52.0425V19.024H53.7085V21.04L53.4145 20.424C53.6759 19.948 54.0539 19.584 54.5485 19.332C55.0525 19.0707 55.6312 18.94 56.2845 18.94ZM64.4405 26.598C63.6192 26.598 62.9845 26.388 62.5365 25.968C62.0885 25.5387 61.8645 24.9087 61.8645 24.078V17.372H63.6145V24.036C63.6145 24.3907 63.7032 24.666 63.8805 24.862C64.0672 25.058 64.3238 25.156 64.6505 25.156C65.0425 25.156 65.3692 25.0533 65.6305 24.848L66.1205 26.094C65.9152 26.262 65.6632 26.388 65.3645 26.472C65.0658 26.556 64.7578 26.598 64.4405 26.598ZM60.6325 20.48V19.08H65.6165V20.48H60.6325ZM72.1661 26.5V24.988L72.0681 24.666V22.02C72.0681 21.5067 71.9141 21.11 71.6061 20.83C71.2981 20.5407 70.8314 20.396 70.2061 20.396C69.7861 20.396 69.3708 20.4613 68.9601 20.592C68.5588 20.7227 68.2181 20.9047 67.9381 21.138L67.2521 19.864C67.6534 19.556 68.1294 19.3273 68.6801 19.178C69.2401 19.0193 69.8188 18.94 70.4161 18.94C71.4988 18.94 72.3341 19.2013 72.9221 19.724C73.5194 20.2373 73.8181 21.0353 73.8181 22.118V26.5H72.1661ZM69.8141 26.598C69.2541 26.598 68.7641 26.5047 68.3441 26.318C67.9241 26.122 67.5974 25.856 67.3641 25.52C67.1401 25.1747 67.0281 24.7873 67.0281 24.358C67.0281 23.938 67.1261 23.56 67.3221 23.224C67.5274 22.888 67.8588 22.622 68.3161 22.426C68.7734 22.23 69.3801 22.132 70.1361 22.132H72.3061V23.294H70.2621C69.6648 23.294 69.2634 23.392 69.0581 23.588C68.8528 23.7747 68.7501 24.008 68.7501 24.288C68.7501 24.6053 68.8761 24.8573 69.1281 25.044C69.3801 25.2307 69.7301 25.324 70.1781 25.324C70.6074 25.324 70.9901 25.226 71.3261 25.03C71.6714 24.834 71.9188 24.5447 72.0681 24.162L72.3621 25.212C72.1941 25.6507 71.8908 25.9913 71.4521 26.234C71.0228 26.4767 70.4768 26.598 69.8141 26.598ZM77.492 24.834L77.534 22.636L81.44 19.024H83.54L80.222 22.356L79.298 23.126L77.492 24.834ZM76.064 26.5V16.112H77.814V26.5H76.064ZM81.706 26.5L78.976 23.126L80.082 21.726L83.834 26.5H81.706ZM87.7784 26.598C86.9571 26.598 86.3224 26.388 85.8744 25.968C85.4264 25.5387 85.2024 24.9087 85.2024 24.078V17.372H86.9524V24.036C86.9524 24.3907 87.0411 24.666 87.2184 24.862C87.4051 25.058 87.6617 25.156 87.9884 25.156C88.3804 25.156 88.7071 25.0533 88.9684 24.848L89.4584 26.094C89.2531 26.262 89.0011 26.388 88.7024 26.472C88.4037 26.556 88.0957 26.598 87.7784 26.598ZM83.9704 20.48V19.08H88.9544V20.48H83.9704ZM99.3731 26.5V24.988L99.2751 24.666V22.02C99.2751 21.5067 99.1211 21.11 98.8131 20.83C98.5051 20.5407 98.0385 20.396 97.4131 20.396C96.9931 20.396 96.5778 20.4613 96.1671 20.592C95.7658 20.7227 95.4251 20.9047 95.1451 21.138L94.4591 19.864C94.8605 19.556 95.3365 19.3273 95.8871 19.178C96.4471 19.0193 97.0258 18.94 97.6231 18.94C98.7058 18.94 99.5411 19.2013 100.129 19.724C100.726 20.2373 101.025 21.0353 101.025 22.118V26.5H99.3731ZM97.0211 26.598C96.4611 26.598 95.9711 26.5047 95.5511 26.318C95.1311 26.122 94.8045 25.856 94.5711 25.52C94.3471 25.1747 94.2351 24.7873 94.2351 24.358C94.2351 23.938 94.3331 23.56 94.5291 23.224C94.7345 22.888 95.0658 22.622 95.5231 22.426C95.9805 22.23 96.5871 22.132 97.3431 22.132H99.5131V23.294H97.4691C96.8718 23.294 96.4705 23.392 96.2651 23.588C96.0598 23.7747 95.9571 24.008 95.9571 24.288C95.9571 24.6053 96.0831 24.8573 96.3351 25.044C96.5871 25.2307 96.9371 25.324 97.3851 25.324C97.8145 25.324 98.1971 25.226 98.5331 25.03C98.8785 24.834 99.1258 24.5447 99.2751 24.162L99.5691 25.212C99.4011 25.6507 99.0978 25.9913 98.6591 26.234C98.2298 26.4767 97.6838 26.598 97.0211 26.598ZM106.435 26.598C105.8 26.598 105.24 26.4813 104.755 26.248C104.27 26.0053 103.892 25.6413 103.621 25.156C103.35 24.6613 103.215 24.0407 103.215 23.294V19.024H104.965V23.056C104.965 23.728 105.114 24.232 105.413 24.568C105.721 24.8947 106.155 25.058 106.715 25.058C107.126 25.058 107.48 24.974 107.779 24.806C108.087 24.638 108.325 24.386 108.493 24.05C108.67 23.714 108.759 23.2987 108.759 22.804V19.024H110.509V26.5H108.843V24.484L109.137 25.1C108.885 25.5853 108.516 25.9587 108.031 26.22C107.546 26.472 107.014 26.598 106.435 26.598ZM113.038 26.5V18.604C113.038 17.82 113.267 17.1947 113.724 16.728C114.191 16.252 114.854 16.014 115.712 16.014C116.02 16.014 116.31 16.0467 116.58 16.112C116.86 16.1773 117.094 16.28 117.28 16.42L116.804 17.736C116.674 17.6333 116.524 17.5587 116.356 17.512C116.188 17.456 116.016 17.428 115.838 17.428C115.474 17.428 115.199 17.5307 115.012 17.736C114.826 17.932 114.732 18.2307 114.732 18.632V19.472L114.788 20.256V26.5H113.038ZM111.806 20.48V19.08H116.79V20.48H111.806ZM122.224 18.94C122.821 18.94 123.353 19.0567 123.82 19.29C124.296 19.5233 124.669 19.8827 124.94 20.368C125.211 20.844 125.346 21.46 125.346 22.216V26.5H123.596V22.44C123.596 21.7773 123.437 21.2827 123.12 20.956C122.812 20.6293 122.378 20.466 121.818 20.466C121.407 20.466 121.043 20.55 120.726 20.718C120.409 20.886 120.161 21.138 119.984 21.474C119.816 21.8007 119.732 22.216 119.732 22.72V26.5H117.982V19.024H119.648V21.04L119.354 20.424C119.615 19.948 119.993 19.584 120.488 19.332C120.992 19.0707 121.571 18.94 122.224 18.94ZM131.094 26.598C130.263 26.598 129.535 26.4347 128.91 26.108C128.294 25.772 127.813 25.3147 127.468 24.736C127.132 24.1573 126.964 23.4993 126.964 22.762C126.964 22.0153 127.127 21.3573 127.454 20.788C127.79 20.2093 128.247 19.7567 128.826 19.43C129.414 19.1033 130.081 18.94 130.828 18.94C131.556 18.94 132.204 19.0987 132.774 19.416C133.343 19.7333 133.791 20.1813 134.118 20.76C134.444 21.3387 134.608 22.02 134.608 22.804C134.608 22.8787 134.603 22.9627 134.594 23.056C134.594 23.1493 134.589 23.238 134.58 23.322H128.35V22.16H133.656L132.97 22.524C132.979 22.0947 132.89 21.7167 132.704 21.39C132.517 21.0633 132.26 20.8067 131.934 20.62C131.616 20.4333 131.248 20.34 130.828 20.34C130.398 20.34 130.02 20.4333 129.694 20.62C129.376 20.8067 129.124 21.068 128.938 21.404C128.76 21.7307 128.672 22.118 128.672 22.566V22.846C128.672 23.294 128.774 23.6907 128.98 24.036C129.185 24.3813 129.474 24.6473 129.848 24.834C130.221 25.0207 130.65 25.114 131.136 25.114C131.556 25.114 131.934 25.0487 132.27 24.918C132.606 24.7873 132.904 24.582 133.166 24.302L134.104 25.38C133.768 25.772 133.343 26.0753 132.83 26.29C132.326 26.4953 131.747 26.598 131.094 26.598ZM140.531 18.94C141.128 18.94 141.66 19.0567 142.127 19.29C142.603 19.5233 142.976 19.8827 143.247 20.368C143.517 20.844 143.653 21.46 143.653 22.216V26.5H141.903V22.44C141.903 21.7773 141.744 21.2827 141.427 20.956C141.119 20.6293 140.685 20.466 140.125 20.466C139.714 20.466 139.35 20.55 139.033 20.718C138.715 20.886 138.468 21.138 138.291 21.474C138.123 21.8007 138.039 22.216 138.039 22.72V26.5H136.289V16.112H138.039V21.04L137.661 20.424C137.922 19.948 138.3 19.584 138.795 19.332C139.299 19.0707 139.877 18.94 140.531 18.94ZM155.309 18.94C155.906 18.94 156.433 19.0567 156.891 19.29C157.357 19.5233 157.721 19.8827 157.983 20.368C158.244 20.844 158.375 21.46 158.375 22.216V26.5H156.625V22.44C156.625 21.7773 156.48 21.2827 156.191 20.956C155.901 20.6293 155.486 20.466 154.945 20.466C154.562 20.466 154.221 20.55 153.923 20.718C153.633 20.886 153.405 21.1333 153.237 21.46C153.078 21.7867 152.999 22.202 152.999 22.706V26.5H151.249V22.44C151.249 21.7773 151.104 21.2827 150.815 20.956C150.525 20.6293 150.11 20.466 149.569 20.466C149.186 20.466 148.845 20.55 148.547 20.718C148.257 20.886 148.029 21.1333 147.861 21.46C147.702 21.7867 147.623 22.202 147.623 22.706V26.5H145.873V19.024H147.539V21.012L147.245 20.424C147.497 19.9387 147.861 19.57 148.337 19.318C148.822 19.066 149.373 18.94 149.989 18.94C150.689 18.94 151.295 19.1127 151.809 19.458C152.331 19.8033 152.677 20.326 152.845 21.026L152.159 20.788C152.401 20.228 152.803 19.78 153.363 19.444C153.923 19.108 154.571 18.94 155.309 18.94ZM164.139 26.598C163.308 26.598 162.58 26.4347 161.955 26.108C161.339 25.772 160.858 25.3147 160.513 24.736C160.177 24.1573 160.009 23.4993 160.009 22.762C160.009 22.0153 160.172 21.3573 160.499 20.788C160.835 20.2093 161.292 19.7567 161.871 19.43C162.459 19.1033 163.126 18.94 163.873 18.94C164.601 18.94 165.249 19.0987 165.819 19.416C166.388 19.7333 166.836 20.1813 167.163 20.76C167.489 21.3387 167.653 22.02 167.653 22.804C167.653 22.8787 167.648 22.9627 167.639 23.056C167.639 23.1493 167.634 23.238 167.625 23.322H161.395V22.16H166.701L166.015 22.524C166.024 22.0947 165.935 21.7167 165.749 21.39C165.562 21.0633 165.305 20.8067 164.979 20.62C164.661 20.4333 164.293 20.34 163.873 20.34C163.443 20.34 163.065 20.4333 162.739 20.62C162.421 20.8067 162.169 21.068 161.983 21.404C161.805 21.7307 161.717 22.118 161.717 22.566V22.846C161.717 23.294 161.819 23.6907 162.025 24.036C162.23 24.3813 162.519 24.6473 162.893 24.834C163.266 25.0207 163.695 25.114 164.181 25.114C164.601 25.114 164.979 25.0487 165.315 24.918C165.651 24.7873 165.949 24.582 166.211 24.302L167.149 25.38C166.813 25.772 166.388 26.0753 165.875 26.29C165.371 26.4953 164.792 26.598 164.139 26.598ZM173.576 18.94C174.173 18.94 174.705 19.0567 175.172 19.29C175.648 19.5233 176.021 19.8827 176.292 20.368C176.562 20.844 176.698 21.46 176.698 22.216V26.5H174.948V22.44C174.948 21.7773 174.789 21.2827 174.472 20.956C174.164 20.6293 173.73 20.466 173.17 20.466C172.759 20.466 172.395 20.55 172.078 20.718C171.76 20.886 171.513 21.138 171.336 21.474C171.168 21.8007 171.084 22.216 171.084 22.72V26.5H169.334V19.024H171V21.04L170.706 20.424C170.967 19.948 171.345 19.584 171.84 19.332C172.344 19.0707 172.922 18.94 173.576 18.94Z" fill="#F5F1E9"/>
</g>
<defs>
<filter id="filter0_d_48_3327" x="0" y="0" width="210" height="50" filterUnits="userSpaceOnUse" color-interpolation-filters="sRGB">
<feFlood flood-opacity="0" result="BackgroundImageFix"/>
<feColorMatrix in="SourceAlpha" type="matrix" values="0 0 0 0 0 0 0 0 0 0 0 0 0 0 0 0 0 0 127 0" result="hardAlpha"/>
<feOffset dy="4"/>
<feGaussianBlur stdDeviation="2"/>
<feComposite in2="hardAlpha" operator="out"/>
<feColorMatrix type="matrix" values="0 0 0 0 0 0 0 0 0 0 0 0 0 0 0 0 0 0 0.25 0"/>
<feBlend mode="normal" in2="BackgroundImageFix" result="effect1_dropShadow_48_3327"/>
<feBlend mode="normal" in="SourceGraphic" in2="effect1_dropShadow_48_3327" result="shape"/>
</filter>
</defs>
</svg>
