<svg width="60" height="60" viewBox="0 0 60 60" fill="none" xmlns="http://www.w3.org/2000/svg">
<g clip-path="url(#clip0_48_3878)">
<mask id="mask0_48_3878" style="mask-type:luminance" maskUnits="userSpaceOnUse" x="2" y="7" width="58" height="48">
<path d="M2.13599 7.18646H59.3422V54.7511H2.13599V7.18646Z" fill="white"/>
</mask>
<g mask="url(#mask0_48_3878)">
<path d="M13.4973 12.7653C13.2348 12.5816 12.9854 12.4175 12.736 12.2468C11.4561 11.3739 10.1369 10.5863 8.66015 10.0809C8.05632 9.8709 7.65596 9.95623 7.24903 10.4616C6.68458 11.1704 6.12013 11.8662 5.70008 12.6669C4.57774 14.7934 3.65231 16.9921 2.90409 19.2762C2.14274 21.6324 2.26088 23.9362 3.1338 26.2268C4.31521 29.3313 5.31284 32.5014 6.06106 35.7437C6.90773 39.3929 7.27528 43.1012 7.41311 46.8357C7.47218 48.4437 7.54438 48.4963 9.11958 48.6866C9.71685 48.7588 10.2813 48.7785 10.8195 48.4241C11.1805 48.1812 11.3774 47.9056 11.3774 47.4855C11.3774 47.1967 11.3839 46.921 11.3708 46.6323C11.2461 44.4467 11.1805 42.2611 11.3117 40.0689C11.4299 37.9883 11.7449 35.9274 12.1519 33.8797C12.1847 33.7024 12.2503 33.5384 12.2962 33.3808C12.5063 33.3415 12.6113 33.4727 12.7163 33.5712C14.6 35.2711 16.2933 37.1285 17.7045 39.2419C18.0261 39.721 18.1836 40.1739 18.0523 40.7515C17.9604 41.1453 17.9473 41.5653 17.9473 41.9788C17.9539 42.6746 18.2755 43.088 18.9252 43.2981C19.0237 43.3309 19.1287 43.3637 19.2272 43.3637C20.0541 43.3703 20.4479 43.8757 20.7958 44.5648C21.544 46.0612 22.3841 47.5117 23.3161 48.9032C23.9003 49.7827 24.5697 50.6031 25.3442 51.3251C27.0704 52.9134 29.1444 53.6551 31.435 53.8651C34.6117 54.1539 37.7686 53.8388 40.8993 53.3269C43.4131 52.9134 45.9137 52.4211 48.3225 51.5548C49.1954 51.2397 50.0552 50.8984 50.9019 50.5178C51.5451 50.229 51.9323 49.8286 51.8995 49.0541C51.8798 48.5881 51.8995 48.1221 51.742 47.6824C51.637 47.3936 51.6961 47.2755 51.9914 47.1901C52.6412 47.0129 53.2713 46.7963 53.9145 46.5994C54.9974 46.2778 56.0738 45.9169 57.1043 45.4509C57.5506 45.2408 57.9838 45.0111 58.3513 44.6829C58.7451 44.322 59.0208 43.9019 59.0142 43.344C59.0142 43.1931 59.0273 43.0355 59.0733 42.8846C59.3358 42.0707 59.0273 41.4275 58.4563 40.8696C58.0494 40.4693 57.5834 40.1477 57.0715 39.8983C54.0983 38.4609 51.2891 36.7413 48.4603 35.0479C47.2133 34.2997 45.8547 33.7156 44.3976 33.4333C41.641 32.9017 39.4685 31.4578 37.7686 29.2394C36.5085 27.5788 35.3467 25.8461 34.2507 24.0674C31.9404 20.3198 29.5054 16.6508 26.7553 13.1985C25.4689 11.5839 24.0447 10.1006 22.4498 8.78138C21.8984 8.32195 21.3012 7.92158 20.658 7.58029C19.8638 7.17336 19.0893 7.17993 18.2886 7.56716C16.1161 8.63699 14.5475 10.2581 13.6417 12.5159C13.622 12.5816 13.5761 12.6406 13.5039 12.7719L13.4973 12.7653ZM39.6589 40.4102C39.7901 40.4561 39.8886 40.4758 39.9739 40.5218C40.3283 40.7252 40.7024 40.9156 41.0372 41.1519C43.5509 42.9043 46.15 44.5189 48.8476 45.9825C49.3661 46.2713 49.8583 46.5994 50.2915 47.0129C50.6984 47.4002 50.9741 47.853 51.0397 48.4109C51.0988 48.8966 51.0529 48.9754 50.5672 49.1066C46.3601 50.2224 42.1398 51.2857 37.7686 51.4826C35.1958 51.6007 32.623 51.7714 30.0436 51.5482C27.7201 51.3447 25.7774 50.4521 24.2941 48.6275C23.7427 47.9515 23.2439 47.2361 22.8173 46.4616C21.9313 44.8405 21.0386 43.2128 20.1329 41.5916C19.0368 39.6357 17.8226 37.7586 16.359 36.0456C14.2784 33.6303 11.8565 31.6022 9.29023 29.7251C7.68877 28.5568 6.107 27.3557 4.49898 26.2005C3.98704 25.8264 3.72451 25.3604 3.56699 24.7566C3.16662 23.2273 3.1338 21.7046 3.55386 20.1819C4.26927 17.5632 5.37191 15.0953 6.61895 12.6931C6.71083 12.5159 6.82897 12.3387 6.94711 12.1746C7.04557 12.0368 7.08494 11.8333 7.37373 11.8465C7.80035 13.4479 8.62077 14.8656 9.50682 16.2505C10.1435 17.2481 10.8129 18.2326 11.5021 19.1909C14.5015 23.3586 17.2581 27.6642 19.5684 32.2585C20.5726 34.2603 21.7409 36.1703 23.0208 38.0146C23.7559 39.0713 24.5697 40.0689 25.4952 40.9746C29.0787 44.4335 33.5681 44.5057 37.5783 42.5892C38.5234 42.1298 39.3307 41.4997 39.6589 40.4102ZM18.3411 8.51885C18.9121 10.501 19.4897 11.6496 20.8089 13.356C21.8591 14.7212 22.9945 16.0273 24.1365 17.3137C26.4862 19.9457 28.4027 22.8532 29.8663 26.0627C30.4964 27.4476 31.179 28.8062 31.8616 30.1582C32.5901 31.6087 33.4368 32.987 34.4869 34.2341C35.5371 35.4877 36.7382 36.5641 38.1559 37.3976C41.3194 39.2419 45.9466 37.6995 47.1477 35.2514C47.8237 35.5139 48.421 35.9143 49.0182 36.3081C51.2301 37.7652 53.5141 39.1041 55.9163 40.2461C56.2839 40.4233 56.6383 40.6334 56.9993 40.8368C57.334 41.0337 57.649 41.2503 57.9181 41.5391C58.4432 42.097 58.4432 42.5302 57.905 43.0749C57.4784 43.5015 56.9533 43.7838 56.4086 44.0069C54.5117 44.7814 52.523 45.2015 50.5081 45.4837C50.1012 45.5427 49.7139 45.4968 49.3267 45.2802C46.8786 43.9019 44.4632 42.4777 42.1398 40.8959C40.289 39.6423 38.2674 38.7825 36.0622 38.3821C35.0186 38.1983 34.0078 37.8899 33.0693 37.3911C32.8133 37.2532 32.6164 37.0957 32.5114 36.7938C32.2292 36.0193 31.8354 35.2908 31.4022 34.5951C30.0436 32.4095 28.4158 30.4667 26.2434 29.0359C25.9677 28.8521 25.8299 28.5962 25.6724 28.3336C24.6354 26.5812 23.618 24.8222 22.5548 23.0895C20.4545 19.67 17.9932 16.5524 14.9216 13.9402C14.2784 13.3889 14.2324 13.2707 14.5737 12.4962C15.3023 10.8488 16.4574 9.56242 17.9867 8.6173C18.0983 8.55167 18.2098 8.48603 18.3477 8.51885H18.3411ZM8.26635 10.816C9.3493 11.0917 10.255 11.6168 11.1411 12.1878C14.2718 14.2027 16.9103 16.7427 19.1746 19.6831C20.973 22.0131 22.4694 24.54 23.9528 27.0735C24.9898 28.8521 25.994 30.6505 27.1032 32.3832C27.9498 33.709 28.8556 34.9889 29.9714 36.1112C31.4153 37.5683 33.1086 38.5921 35.1302 39.045C35.9768 39.2354 36.8366 39.4191 37.6833 39.6488C38.064 39.7473 38.5825 39.7998 38.6809 40.2527C38.7925 40.7843 38.3134 41.0665 37.9524 41.3422C37.2501 41.8804 36.4428 42.2086 35.5962 42.4645C31.6516 43.6853 28.2911 42.7664 25.4952 39.7473C24.9176 39.1238 24.3859 38.4609 23.8937 37.7652C22.3644 35.5927 21.0386 33.3021 19.831 30.9393C18.0195 27.4082 15.9586 24.0281 13.6614 20.7923C12.4669 19.1121 11.2658 17.4385 10.1697 15.6992C9.51995 14.6753 8.91612 13.6251 8.48294 12.4897C8.28604 11.9843 8.11539 11.4724 8.27291 10.8095L8.26635 10.816ZM41.9364 37.3451C40.3086 37.3582 39.462 37.1416 38.484 36.5903C37.8999 36.2622 37.3617 35.8684 36.8498 35.4286C35.2089 34.0175 33.9816 32.2782 32.9511 30.388C31.9994 28.6487 31.1725 26.8503 30.3323 25.0585C29.0262 22.2953 27.3723 19.7553 25.377 17.445C24.4385 16.3555 23.4933 15.266 22.5613 14.1633C21.7606 13.2182 20.9861 12.2534 20.3364 11.2033C19.8704 10.455 19.4831 9.674 19.2534 8.82077C19.2009 8.60417 19.0762 8.34164 19.2928 8.17099C19.4897 8.0266 19.7391 8.11849 19.9557 8.21693C20.2313 8.3482 20.5136 8.47291 20.7827 8.63043C21.3996 8.99797 21.9575 9.45741 22.5023 9.93653C24.0906 11.3345 25.4886 12.9163 26.775 14.5965C29.3675 17.9635 31.6844 21.5209 33.9159 25.1373C35.0317 26.9553 36.2328 28.7209 37.6045 30.3683C39.1929 32.2651 41.1684 33.5384 43.5838 34.1028C44.1351 34.2275 44.6798 34.3719 45.2246 34.5229C45.5659 34.6213 46.0253 34.6476 46.1238 35.0282C46.2288 35.4549 45.8087 35.7043 45.5134 35.934C44.3123 36.8463 42.9471 37.3254 41.9364 37.3451ZM10.4257 47.2295C10.3863 47.0851 10.3338 46.9407 10.301 46.7898C9.6906 43.5344 9.06051 40.2789 8.73235 36.9776C8.59452 35.5993 8.4895 34.2078 8.67984 32.823C8.74547 32.3898 8.80454 31.95 9.00801 31.5628C9.25741 31.0771 9.55933 31.0115 9.99251 31.3265C10.3207 31.5628 10.6226 31.8647 10.9705 32.0747C11.5283 32.4226 11.7581 32.8361 11.4496 33.4662C11.3708 33.6237 11.3511 33.814 11.3117 33.9912C10.4323 37.9555 10.2025 41.9723 10.4913 46.0219C10.5176 46.4288 10.5766 46.8357 10.4257 47.2295ZM8.79798 30.447C8.18759 31.018 7.99069 31.7006 7.87911 32.4226C7.67565 33.7287 7.71503 35.0414 7.82004 36.3475C8.06288 39.2747 8.5617 42.1561 9.11302 45.0374C9.25741 45.825 9.40181 46.606 9.5462 47.387C9.57246 47.5511 9.66434 47.748 9.38868 47.8202C8.6864 47.9974 8.29916 47.7283 8.25322 47.0195C8.24009 46.816 8.2401 46.606 8.23353 46.4025C8.14821 43.5737 7.85942 40.7646 7.38029 37.9686C6.80928 34.6148 5.80509 31.379 4.75495 28.1498C4.66963 27.8873 4.49898 27.6445 4.57774 27.29C5.97574 28.3336 7.35404 29.3641 8.79798 30.447ZM47.548 50.7869C47.2724 51.0428 46.9311 51.115 46.6029 51.2004C42.9668 52.198 39.2782 52.8543 35.5108 53.0578C33.9684 53.1365 32.4261 53.1825 30.8902 52.9265C30.2142 52.8149 29.5316 52.7165 28.9212 52.3818C35.2089 52.7296 41.431 52.408 47.548 50.7869ZM31.0084 35.8158C29.4397 34.4835 28.3437 32.777 27.3395 31.0049C28.8425 32.3832 30.1223 33.9387 31.0084 35.8158ZM19.68 42.5302C18.7086 42.4448 18.538 42.1167 18.9384 41.2306C19.1812 41.6638 19.4044 42.051 19.68 42.5302ZM52.0308 46.1203C51.5517 46.396 51.2038 46.4616 50.9741 46.3107C51.3416 46.245 51.6829 46.1794 52.0308 46.1203Z" fill="#8B8F6B"/>
</g>
</g>
<defs>
<clipPath id="clip0_48_3878">
<rect width="60" height="60" fill="white" transform="translate(0 -0.00439453)"/>
</clipPath>
</defs>
</svg>
