<svg width="61" height="63" viewBox="0 0 61 63" fill="none" xmlns="http://www.w3.org/2000/svg">
<mask id="mask0_48_3849" style="mask-type:luminance" maskUnits="userSpaceOnUse" x="0" y="25" width="61" height="24">
<path d="M0 25.5266H61V48.6782H0V25.5266Z" fill="white"/>
</mask>
<g mask="url(#mask0_48_3849)">
<path d="M3.23167 47.66H14.7908C16.5461 47.66 17.968 46.225 17.968 44.4688V44.4483L29.0305 48.1315C30.6837 48.6782 32.3846 48.9515 34.0855 48.9515C36.4463 48.9515 38.8003 48.4254 40.9978 47.373L58.2922 38.8722C59.3672 38.3461 60.17 37.4304 60.5578 36.296C60.9456 35.1617 60.8708 33.9453 60.3401 32.8725C59.2583 30.6516 56.5846 29.7291 54.3734 30.8088L44.488 35.6537C43.9981 33.6242 42.1816 32.114 40.0181 32.114H33.1058L30.6633 30.802C28.3433 29.5651 25.7308 28.9091 23.1046 28.9091H17.968V28.8271C17.968 27.0709 16.5461 25.6359 14.7908 25.6359H3.23167C1.48318 25.6359 0.0544434 27.0709 0.0544434 28.8271V44.4688C0.0544434 46.2318 1.48318 47.66 3.23167 47.66ZM23.1046 31.6151C25.2886 31.6151 27.4657 32.1618 29.3911 33.1937L32.1329 34.6697C32.1533 34.6765 32.1669 34.6765 32.1873 34.6833C32.2485 34.7175 32.3029 34.738 32.371 34.7585C32.405 34.7653 32.439 34.7858 32.4798 34.7927C32.5411 34.8063 32.6091 34.8063 32.6703 34.8132C32.7043 34.82 32.7384 34.8268 32.7724 34.8268C32.7724 34.8268 32.7792 34.8268 32.786 34.8268H40.0181C41.0658 34.8268 41.9231 35.681 41.9231 36.7402C41.9231 37.7926 41.0658 38.6536 40.0181 38.6536H29.8945C29.1461 38.6536 28.5474 39.2617 28.5474 40.0066C28.5474 40.7583 29.1461 41.3664 29.8945 41.3664H40.0181C41.7938 41.3664 43.3382 40.3483 44.107 38.8586L55.5572 33.2483C56.4281 32.8178 57.4894 33.1868 57.918 34.0615C58.129 34.4852 58.1562 34.9704 58.0065 35.4214C57.85 35.8655 57.5303 36.2277 57.1084 36.4395L39.8208 44.9335C36.698 46.43 33.167 46.6487 29.8809 45.5553L17.968 41.5919V31.6151H23.1046ZM2.75542 28.8271C2.75542 28.5606 2.97314 28.3488 3.23167 28.3488H14.7908C15.0561 28.3488 15.267 28.5606 15.267 28.8271V44.4688C15.267 44.7353 15.0561 44.9471 14.7908 44.9471H3.23167C2.97314 44.9471 2.75542 44.7353 2.75542 44.4688V28.8271Z" fill="#8B8F6B"/>
</g>
<mask id="mask1_48_3849" style="mask-type:luminance" maskUnits="userSpaceOnUse" x="23" y="0" width="29" height="28">
<path d="M23.5334 0.167755H51.4005V27.2759H23.5334V0.167755Z" fill="white"/>
</mask>
<g mask="url(#mask1_48_3849)">
<path d="M37.5415 0.167755C30.3162 0.167755 24.4312 6.07183 24.4312 13.3358C24.4312 20.5929 30.3162 26.5038 37.5415 26.5038C44.7736 26.5038 50.6518 20.5929 50.6518 13.3358C50.6518 6.07183 44.7736 0.167755 37.5415 0.167755ZM37.5415 23.7909C31.8061 23.7909 27.1321 19.0963 27.1321 13.3358C27.1321 7.56835 31.8061 2.87379 37.5415 2.87379C43.2836 2.87379 47.9508 7.56835 47.9508 13.3358C47.9508 19.0963 43.2836 23.7909 37.5415 23.7909Z" fill="#8B8F6B"/>
</g>
<path d="M42.5559 17.1146C41.9096 16.7456 41.0863 16.9711 40.719 17.6203C40.025 18.8298 39.0997 19.5268 38.1677 19.5268C36.9566 19.5268 35.8477 18.3651 35.1877 16.6704H37.2832C38.0316 16.6704 38.6371 16.0622 38.6371 15.3174C38.6371 14.5657 38.0316 13.9576 37.2832 13.9576H34.6094C34.5958 13.7525 34.589 13.5475 34.589 13.3357C34.589 13.1239 34.5958 12.912 34.6094 12.707H37.2832C38.0316 12.707 38.6371 12.0989 38.6371 11.354C38.6371 10.6023 38.0316 9.99417 37.2832 9.99417H35.1877C35.8477 8.30631 36.9566 7.13779 38.1677 7.13779C39.0997 7.13779 40.025 7.83481 40.7122 9.05115C41.0863 9.70033 41.9096 9.93267 42.5559 9.55683C43.2022 9.18782 43.4267 8.36098 43.0594 7.7118C41.8824 5.62761 40.093 4.42493 38.1677 4.42493C35.4803 4.42493 33.2487 6.70046 32.3303 9.99417H30.5001C29.7517 9.99417 29.1462 10.6023 29.1462 11.354C29.1462 12.0989 29.7517 12.707 30.5001 12.707H31.9085C31.9017 12.912 31.888 13.1239 31.888 13.3357C31.888 13.5475 31.9017 13.7525 31.9085 13.9576H30.5001C29.7517 13.9576 29.1462 14.5657 29.1462 15.3174C29.1462 16.0622 29.7517 16.6704 30.5001 16.6704H32.3303C33.2487 19.9641 35.4803 22.2397 38.1677 22.2397C40.093 22.2397 41.8756 21.0438 43.0594 18.9664C43.4267 18.3173 43.2022 17.4904 42.5559 17.1146Z" fill="#8B8F6B"/>
</svg>
