<svg width="93" height="93" viewBox="0 0 93 93" fill="none" xmlns="http://www.w3.org/2000/svg">
<path d="M59.4396 25.7806C55.4163 21.8562 50.1079 19.7605 44.4832 19.8989C33.224 20.1658 24.1692 29.5469 24.2878 40.8061C24.3471 46.2825 26.5317 51.4228 30.4364 55.278C32.9769 57.7988 34.4399 61.3377 34.4399 64.9952V69.7697C34.4399 70.2245 34.8056 70.6001 35.2702 70.6001C35.7348 70.6001 36.1006 70.2245 36.1006 69.7697V64.9952C36.1006 60.8928 34.4596 56.919 31.6028 54.0918C28.0145 50.5529 26.0078 45.8278 25.9584 40.7863C25.8398 30.4365 34.173 21.8166 44.5129 21.5695C49.6829 21.4509 54.576 23.3686 58.2731 26.9767C61.9702 30.5848 64.0065 35.4187 64.0065 40.5787C64.0065 45.6795 62.0097 50.4738 58.372 54.072C55.5052 56.919 53.8544 60.9027 53.8544 64.9952V69.7697C53.8544 70.2344 54.2202 70.6001 54.6848 70.6001C55.1494 70.6001 55.5151 70.2344 55.5151 69.7697V64.9952C55.5151 61.3476 56.988 57.7988 59.5483 55.2484C63.5024 51.3437 65.6672 46.1243 65.6672 40.5787C65.6672 34.9639 63.4628 29.705 59.4396 25.7806Z" fill="#AD5315"/>
<path d="M54.754 72.6167H35.3395C34.8848 72.6167 34.5091 72.9825 34.4993 73.4372L34.4399 76.9662C34.4399 79.5561 36.5455 81.6617 39.1453 81.6617H50.8197C53.4096 81.6617 55.5152 79.5561 55.5152 76.9761L55.5844 73.4668C55.5844 73.2494 55.5053 73.0319 55.3471 72.8737C55.189 72.7156 54.9715 72.6167 54.754 72.6167ZM53.8545 76.9662C53.8545 78.6368 52.4903 80.0009 50.8197 80.0009H39.1453C37.4648 80.0009 36.1105 78.6368 36.1105 76.9761L36.16 74.2873H53.9039L53.8545 76.9662Z" fill="#AD5315"/>
<path d="M51.1067 82.8677H39.2543C38.7897 82.8677 38.4141 83.2433 38.4141 83.698C38.4141 84.1626 38.7897 84.5284 39.2543 84.5284H51.1067C51.5713 84.5284 51.937 84.1626 51.937 83.698C51.937 83.2433 51.5713 82.8677 51.1067 82.8677Z" fill="#AD5315"/>
<mask id="mask0_48_3775" style="mask-type:luminance" maskUnits="userSpaceOnUse" x="40" y="86" width="11" height="3">
<path d="M40.4897 86.0408H50.6122V88.4924H40.4897V86.0408Z" fill="white"/>
</mask>
<g mask="url(#mask0_48_3775)">
<path d="M48.6449 87.0392H41.5769C41.1123 87.0392 40.7466 87.405 40.7466 87.8696C40.7466 88.3342 41.1123 88.7 41.5769 88.7H48.6449C49.1095 88.7 49.4851 88.3342 49.4851 87.8696C49.4851 87.405 49.1095 87.0392 48.6449 87.0392Z" fill="#AD5315"/>
</g>
<path d="M41.5769 51.7589C42.17 51.7589 42.7434 51.5019 43.1388 51.0571L56.2466 36.2985C57.0077 35.4385 56.9286 34.1237 56.0686 33.3527C55.2086 32.5915 53.8939 32.6706 53.1228 33.5306L41.7549 46.332L36.3773 38.7698C35.715 37.8307 34.4102 37.6132 33.4711 38.2755C32.532 38.9477 32.3145 40.2427 32.9867 41.1818L39.8767 50.8791C40.2523 51.3932 40.8355 51.7194 41.4682 51.749C41.4978 51.7589 41.5374 51.7589 41.5769 51.7589Z" fill="#AD5315"/>
<mask id="mask1_48_3775" style="mask-type:luminance" maskUnits="userSpaceOnUse" x="43" y="3" width="6" height="15">
<path d="M43.0205 3.66742H48.0817V17.7143H43.0205V3.66742Z" fill="white"/>
</mask>
<g mask="url(#mask1_48_3775)">
<path d="M45.3929 16.8938C45.8575 16.8938 46.2331 16.5182 46.2331 16.0635V4.49778C46.2331 4.04306 45.8575 3.66742 45.3929 3.66742C44.9381 3.66742 44.5625 4.04306 44.5625 4.49778V16.0635C44.5625 16.5182 44.9381 16.8938 45.3929 16.8938Z" fill="#AD5315"/>
</g>
<mask id="mask2_48_3775" style="mask-type:luminance" maskUnits="userSpaceOnUse" x="7" y="40" width="14" height="6">
<path d="M7.66113 40.4898H20.245V45.551H7.66113V40.4898Z" fill="white"/>
</mask>
<g mask="url(#mask2_48_3775)">
<path d="M18.2678 42.3383H8.50126C8.04654 42.3383 7.6709 42.714 7.6709 43.1687C7.6709 43.6333 8.04654 44.0089 8.50126 44.0089H18.2678C18.7324 44.0089 19.1081 43.6333 19.1081 43.1687C19.1081 42.714 18.7324 42.3383 18.2678 42.3383Z" fill="#AD5315"/>
</g>
<mask id="mask3_48_3775" style="mask-type:luminance" maskUnits="userSpaceOnUse" x="70" y="40" width="14" height="6">
<path d="M70.8569 40.4898H83.0652V45.551H70.8569V40.4898Z" fill="white"/>
</mask>
<g mask="url(#mask3_48_3775)">
<path d="M82.2844 42.3383H72.5179C72.0533 42.3383 71.6875 42.714 71.6875 43.1687C71.6875 43.6333 72.0533 44.0089 72.5179 44.0089H82.2844C82.749 44.0089 83.1148 43.6333 83.1148 43.1687C83.1148 42.714 82.749 42.3383 82.2844 42.3383Z" fill="#AD5315"/>
</g>
<path d="M25.6224 61.7529L19.5825 67.7928C19.2563 68.119 19.2563 68.6429 19.5825 68.9691C19.7407 69.1371 19.9582 69.2162 20.1757 69.2162C20.3833 69.2162 20.6007 69.1371 20.7589 68.9691L26.8086 62.9292C27.125 62.603 27.125 62.0791 26.8086 61.7529C26.4824 61.4267 25.9486 61.4267 25.6224 61.7529Z" fill="#AD5315"/>
<path d="M64.5701 24.8317C64.7875 24.8317 65.005 24.7526 65.1632 24.5944L72.9626 16.795C73.2888 16.4688 73.2888 15.9449 72.9626 15.6088C72.6364 15.2924 72.1125 15.2924 71.7863 15.6088L63.9868 23.4082C63.6606 23.7344 63.6606 24.2583 63.9868 24.5944C64.145 24.7526 64.3625 24.8317 64.5701 24.8317Z" fill="#AD5315"/>
<path d="M65.1632 61.7529C64.837 61.4267 64.3131 61.4267 63.9868 61.7529C63.6606 62.0791 63.6606 62.603 63.9868 62.9292L70.0267 68.9691C70.1849 69.1371 70.4023 69.2162 70.6198 69.2162C70.8274 69.2162 71.0449 69.1371 71.203 68.9691C71.5293 68.6429 71.5293 68.119 71.203 67.7928L65.1632 61.7529Z" fill="#AD5315"/>
<path d="M25.6222 24.5944C25.7903 24.7526 25.9978 24.8317 26.2153 24.8317C26.4229 24.8317 26.6404 24.7526 26.8084 24.5944C27.1248 24.2682 27.1248 23.7344 26.8084 23.4082L18.9991 15.6088C18.6828 15.2924 18.149 15.2924 17.8228 15.6088C17.4966 15.935 17.4966 16.4688 17.8228 16.795L25.6222 24.5944Z" fill="#AD5315"/>
</svg>
