<svg width="52" height="53" viewBox="0 0 52 53" fill="none" xmlns="http://www.w3.org/2000/svg">
<g clip-path="url(#clip0_48_3823)">
<g clip-path="url(#clip1_48_3823)">
<mask id="mask0_48_3823" style="mask-type:luminance" maskUnits="userSpaceOnUse" x="2" y="0" width="51" height="52">
<path d="M2.07983 0.2146H53V51.3646H2.07983V0.2146Z" fill="white"/>
</mask>
<g mask="url(#mask0_48_3823)">
<path d="M9.91152 0.2146V4.15053H7.95218C4.72637 4.15053 2.07983 6.80871 2.07983 10.0487V45.4607C2.07983 48.7064 4.72637 51.3646 7.95218 51.3646H47.1277C50.3535 51.3646 53 48.7064 53 45.4607V10.0487C53 6.80871 50.3535 4.15053 47.1277 4.15053H45.1683V0.2146H41.2496V4.15053H13.8302V0.2146H9.91152ZM7.95218 8.08646H9.91152V12.0167H13.8302V8.08646H41.2496V12.0167H45.1683V8.08646H47.1277C48.2294 8.08646 49.087 8.94209 49.087 10.0487V15.9526H5.99284V10.0487C5.99284 8.94209 6.85041 8.08646 7.95218 8.08646ZM5.99284 19.8885H49.087V45.4607C49.087 46.5673 48.2294 47.4286 47.1277 47.4286H7.95218C6.85041 47.4286 5.99284 46.5673 5.99284 45.4607V19.8885ZM27.5399 23.8245C24.3084 23.8245 21.6619 26.4826 21.6619 29.7227C21.6619 31.2286 22.2582 32.6147 23.1953 33.6586C22.2582 34.7025 21.6619 36.0886 21.6619 37.5945C21.6619 40.8345 24.3084 43.4927 27.5399 43.4927C30.7714 43.4927 33.4179 40.8345 33.4179 37.5945C33.4179 36.0886 32.8216 34.7025 31.8845 33.6586C32.8216 32.6147 33.4179 31.2286 33.4179 29.7227C33.4179 26.4826 30.7714 23.8245 27.5399 23.8245ZM27.5399 27.7547C28.6417 27.7547 29.4993 28.616 29.4993 29.7227C29.4993 30.8293 28.6417 31.6906 27.5399 31.6906C26.4381 31.6906 25.5806 30.8293 25.5806 29.7227C25.5806 28.616 26.4381 27.7547 27.5399 27.7547ZM27.5399 35.6266C28.6417 35.6266 29.4993 36.4879 29.4993 37.5945C29.4993 38.7011 28.6417 39.5625 27.5399 39.5625C26.4381 39.5625 25.5806 38.7011 25.5806 37.5945C25.5806 36.4879 26.4381 35.6266 27.5399 35.6266Z" fill="#8B8F6B"/>
</g>
</g>
</g>
<defs>
<clipPath id="clip0_48_3823">
<rect width="52" height="52" fill="white" transform="translate(0 0.624451)"/>
</clipPath>
<clipPath id="clip1_48_3823">
<rect width="70.6532" height="70.9641" fill="white" transform="translate(-0.291016 0.2146)"/>
</clipPath>
</defs>
</svg>
