<svg width="59" height="59" viewBox="0 0 59 59" fill="none" xmlns="http://www.w3.org/2000/svg">
<path d="M54.7937 31.0445C54.4171 30.3865 53.6482 29.9742 52.9186 29.998C51.3102 30.0297 49.7175 29.887 48.1484 29.6016C45.1043 29.0466 42.1857 27.9367 39.4789 26.2797C38.6081 25.7564 37.5175 25.9071 36.8271 26.6603C33.2103 30.5847 21.787 40.8755 12.4428 41.4701C9.05347 41.6842 6.3781 41.708 4.4716 41.5494C3.19276 41.4463 1.96884 41.922 1.09797 42.8734C0.234945 43.8248 -0.141647 45.0933 0.0701866 46.3697C0.658612 49.8978 2.94954 55.9866 11.7053 57.1521C19.6216 58.1986 23.9994 57.3424 28.2204 56.5178C30.8252 56.0104 33.273 55.5347 36.4584 55.5347C38.8277 55.5347 40.5538 56.0184 42.3975 56.5495C44.1942 57.049 46.0615 57.5723 48.6819 57.7388C48.8074 57.7388 48.933 57.7467 49.0585 57.7467C51.0278 57.7467 52.8715 56.7953 54.0483 55.1383C55.5704 53.0215 57.4769 49.5093 57.9084 44.8713C58.5439 38.0848 55.6959 32.5747 54.8172 31.0366L54.7937 31.0445ZM55.8999 44.689C55.5076 48.8671 53.7894 52.0384 52.4086 53.957C51.5613 55.1542 50.204 55.7964 48.7839 55.7171C46.3753 55.5664 44.61 55.0749 42.9153 54.5992C41.0324 54.0601 39.0867 53.513 36.4505 53.513C33.069 53.513 30.4094 54.0284 27.8438 54.5358C23.7641 55.3365 19.5588 56.1531 11.9642 55.1542C4.85604 54.2107 2.65141 49.6758 2.04729 46.0368C1.93745 45.3867 2.14144 44.7286 2.5808 44.245C3.028 43.7534 3.6635 43.5077 4.30684 43.5552C6.31533 43.7297 9.10839 43.7138 12.584 43.4918C22.2263 42.8734 33.6339 33.1138 38.3099 28.0477C38.3492 28.0001 38.4198 27.9843 38.4669 28.016C41.3854 29.7919 44.5315 30.997 47.8189 31.5916C49.5135 31.8929 51.2317 32.0356 52.9578 32.0197C52.9892 31.988 53.0519 32.0197 53.0755 32.0673C53.656 33.0662 56.4962 38.3385 55.9077 44.689H55.8999ZM49.9843 33.7798C48.3288 33.7798 46.9794 35.1434 46.9794 36.8163C46.9794 38.4812 48.3288 39.8448 49.9843 39.8448C51.6319 39.8448 52.9813 38.4812 52.9813 36.8163C52.9813 35.1434 51.6319 33.7798 49.9843 33.7798ZM49.9843 37.8232C49.4272 37.8232 48.98 37.3712 48.98 36.8163C48.98 36.2613 49.4272 35.8015 49.9843 35.8015C50.5335 35.8015 50.9807 36.2613 50.9807 36.8163C50.9807 37.3712 50.5335 37.8232 49.9843 37.8232ZM3.19276 28.4441C3.56935 29.1101 4.33038 29.4906 5.06787 29.4906C6.67623 29.4589 8.2689 29.6016 9.83803 29.887C12.8821 30.442 15.8007 31.5519 18.5075 33.2089C18.8527 33.423 19.2293 33.5181 19.6059 33.5181C20.1786 33.5181 20.7513 33.2882 21.1672 32.8363C24.784 28.9119 36.2073 18.6211 45.5515 18.0265C48.933 17.8203 51.6162 17.7886 53.5305 17.9472C54.8094 18.0582 56.0254 17.5745 56.8963 16.6232C57.7672 15.6797 58.1359 14.4033 57.9241 13.1348C57.3357 9.59878 55.0447 3.50993 46.289 2.34448C38.3805 1.29796 34.0027 2.1542 29.7739 2.97874C27.1769 3.48614 24.7291 3.96183 21.5359 3.96183C19.1665 3.96183 17.4405 3.47821 15.6046 2.95495C13.8001 2.44755 11.9328 1.92429 9.31237 1.7578C7.20974 1.63095 5.2091 2.59818 3.94594 4.34239C2.43173 6.46714 0.525234 9.97933 0.0937245 14.6173C-0.549621 21.4039 2.29835 26.914 3.17707 28.452L3.19276 28.4441ZM2.09437 14.7997C2.47881 10.6136 4.19701 7.44231 5.57784 5.52369C6.42517 4.33446 7.77463 3.69228 9.20254 3.77156C11.6112 3.92219 13.3764 4.41374 15.0711 4.88943C16.954 5.42855 18.8998 5.96767 21.5359 5.96767C24.9174 5.96767 27.5771 5.45233 30.1426 4.95286C34.2223 4.15211 38.4276 3.33551 46.0222 4.33446C53.1304 5.27791 55.335 9.80491 55.9391 13.4519C56.049 14.102 55.845 14.76 55.4056 15.2437C54.9584 15.7352 54.3308 15.981 53.6796 15.9255C51.6711 15.759 48.878 15.7748 45.4024 15.9968C35.7601 16.6152 24.3603 26.3669 19.6765 31.441C19.6373 31.4885 19.5667 31.5044 19.5196 31.4727C16.601 29.6968 13.4549 28.4917 10.1676 27.8971C8.59842 27.6116 6.99006 27.4689 5.3817 27.4689C5.25617 27.4689 5.14633 27.4689 5.02864 27.4689C4.98157 27.4531 4.94234 27.4689 4.91096 27.4214C4.33038 26.4224 1.49025 21.1502 2.07868 14.7997H2.09437ZM8.00999 25.7009C9.65758 25.7009 11.007 24.3373 11.007 22.6724C11.007 21.0075 9.65758 19.6438 8.00999 19.6438C6.35456 19.6438 5.00511 21.0075 5.00511 22.6724C5.00511 24.3373 6.35456 25.7009 8.00999 25.7009ZM8.00999 21.6655C8.55919 21.6655 9.00639 22.1174 9.00639 22.6724C9.00639 23.2273 8.55919 23.6872 8.00999 23.6872C7.4608 23.6872 7.00575 23.2273 7.00575 22.6724C7.00575 22.1174 7.4608 21.6655 8.00999 21.6655Z" fill="#8B8F6B"/>
</svg>
