<svg width="52" height="53" viewBox="0 0 52 53" fill="none" xmlns="http://www.w3.org/2000/svg">
<g clip-path="url(#clip0_48_3836)">
<mask id="mask0_48_3836" style="mask-type:luminance" maskUnits="userSpaceOnUse" x="3" y="-1" width="50" height="55">
<path d="M3 -0.751099H52.0522V53.4993H3V-0.751099Z" fill="white"/>
</mask>
<g mask="url(#mask0_48_3836)">
<path d="M51.5724 16.5013C50.7683 11.191 47.3154 7.6258 44.2613 5.45055C35.4169 -2.3467 3.98485 -1.35569 3.06239 10.9167C3.06862 10.9479 3.04992 25.676 3.06862 25.701C3.09979 30.4815 9.68787 34.5328 19.143 35.7919C16.9429 37.2815 14.7115 38.7462 12.5113 40.1611C12.3119 40.292 12.1311 40.4416 11.9628 40.6161C11.8008 40.7844 11.6574 40.9776 11.539 41.1833C11.4206 41.3889 11.3271 41.6071 11.2648 41.8377C11.1962 42.0683 11.1588 42.2989 11.1526 42.5358C11.1401 42.7726 11.1588 43.0095 11.2024 43.2463C11.2523 43.4769 11.3271 43.7013 11.4268 43.9195C11.5265 44.1314 11.6512 44.3371 11.8008 44.5178C11.9504 44.7048 12.1187 44.8731 12.3057 45.0164L22.3342 52.7389C22.864 53.144 23.4624 53.3497 24.1355 53.3559C24.8024 53.3559 25.407 53.1565 25.943 52.7576C44.4732 38.7774 53.0932 26.5798 51.5724 16.5013ZM25.2263 2.28428C29.8573 2.22818 34.3511 2.97612 38.7078 4.53432C40.4717 5.26979 42.1234 6.21718 43.6442 7.37648C46.2495 9.65769 46.0314 12.5684 43.3326 14.725C39.9606 17.5547 33.0235 19.5429 25.2263 19.5429C14.2378 19.5429 4.95093 15.5913 4.95093 10.9167C4.95093 6.23588 14.2378 2.28428 25.2263 2.28428ZM4.95717 25.6636C4.9447 25.6511 4.95717 15.2485 4.95093 15.2361C8.36651 18.9197 16.064 21.4315 25.2263 21.4315C31.5214 21.4315 37.1247 20.2472 41.1262 18.3088C37.6919 22.3726 30.0318 28.2938 21.6175 34.1028V28.0944C21.6175 27.8326 21.5302 27.6082 21.3432 27.4212C21.1562 27.2405 20.9381 27.147 20.6763 27.147C20.4145 27.147 20.1902 27.2405 20.0032 27.4212C19.8224 27.6082 19.7289 27.8326 19.7289 28.0944V33.9657C18.4013 33.8036 17.0862 33.5792 15.7898 33.2801V27.0909C15.7898 26.8291 15.6963 26.6047 15.5093 26.4177C15.3286 26.237 15.1042 26.1435 14.8424 26.1435C14.5806 26.1435 14.3562 26.237 14.1755 26.4177C13.9885 26.6047 13.895 26.8291 13.895 27.0909V32.7939C12.5363 32.4012 11.2274 31.9026 9.95588 31.2856V24.6975C9.94965 24.4357 9.85616 24.2175 9.66917 24.0368C9.48842 23.856 9.26404 23.7625 9.00849 23.7625C8.74672 23.7625 8.52857 23.856 8.34158 24.0368C8.16083 24.2175 8.06734 24.4357 8.06111 24.6975V30.1948C6.09777 28.861 4.95717 27.3028 4.95717 25.6636ZM24.8024 51.243C24.6092 51.3926 24.3848 51.4674 24.1418 51.4612C23.8987 51.4612 23.6805 51.3864 23.4873 51.2368L13.465 43.5206C13.3216 43.4084 13.2156 43.2775 13.1471 43.1154C13.0723 42.9596 13.0349 42.7913 13.0474 42.6168C13.0536 42.4423 13.0972 42.2802 13.1845 42.1244C13.2717 41.9748 13.3902 41.8502 13.5335 41.7567C14.5308 41.1147 15.5903 40.4229 16.6936 39.6999L27.7506 48.968C26.7969 49.7222 25.8122 50.4826 24.8024 51.243ZM44.4296 32.4324L42.2793 30.3693C42.086 30.1886 41.8616 30.1013 41.5999 30.1076C41.3443 30.1138 41.1199 30.2073 40.9392 30.3943C40.7584 30.5812 40.6712 30.8056 40.6774 31.0674C40.6836 31.3292 40.7771 31.5473 40.9641 31.7343L43.2827 33.9532C42.3478 35.1499 41.3132 36.3653 40.185 37.6056L37.0686 35.0876C36.8692 34.9317 36.6386 34.8632 36.383 34.8944C36.1275 34.9255 35.9155 35.0439 35.7535 35.2434C35.5914 35.4428 35.5229 35.6672 35.5478 35.929C35.5727 36.1845 35.6849 36.3965 35.8844 36.5585L38.8886 38.9893C37.7667 40.1611 36.5575 41.3453 35.2673 42.5482L32.2382 39.5129C32.0512 39.3383 31.8331 39.2511 31.5713 39.2511C31.3157 39.2511 31.0976 39.3446 30.9168 39.5316C30.7298 39.7123 30.6426 39.9305 30.6364 40.186C30.6364 40.4478 30.7236 40.6659 30.8981 40.8529L33.8712 43.826C32.4252 45.1162 30.8919 46.4313 29.2527 47.7589L18.3452 38.6091C29.128 31.4476 43.0396 21.3629 44.7225 15.9965C45.4767 15.4106 46.0875 14.6938 46.5487 13.8524C47.0162 13.0172 47.2904 12.1197 47.3777 11.166C51.8902 17.8975 49.8957 24.5728 44.4296 32.4324Z" fill="#8B8F6B"/>
</g>
</g>
<defs>
<clipPath id="clip0_48_3836">
<rect width="52" height="52" fill="white" transform="translate(0 0.873352)"/>
</clipPath>
</defs>
</svg>
