<svg width="24" height="24" viewBox="0 0 24 24" fill="none" xmlns="http://www.w3.org/2000/svg">
<ellipse cx="12.0151" cy="12.2039" rx="11.3553" ry="11.6311" fill="black"/>
<path fill-rule="evenodd" clip-rule="evenodd" d="M11.3181 15.3027C11.6114 15.3144 11.8762 15.7966 12.6518 15.7966C14.1085 15.8084 15.1111 14.4206 15.4233 12.5976C16.511 6.28201 9.1048 5.77628 8.34809 10.9746C8.16838 12.1978 8.4616 13.6091 9.22776 14.0678C9.8142 14.4206 9.85204 13.4091 9.67232 12.974C8.87779 11.0452 9.83312 9.30457 11.0817 8.81061C12.2546 8.34017 13.0869 8.72828 13.7207 9.53979C14.5341 10.5865 14.1652 13.4327 13.2004 14.3383C12.8599 14.6558 12.2356 14.7264 11.9141 14.35C11.2519 13.5856 12.2735 11.9625 12.1221 10.7747C11.9708 9.59859 10.4763 9.77501 10.4006 11.5039C10.3628 12.3859 10.5709 12.6447 10.4101 13.5268C10.1547 14.9381 9.3791 17.8195 9.92771 18.9486C10.7317 18.4781 11.129 15.6555 11.3181 15.3027Z" fill="white"/>
</svg>
