<svg width="52" height="53" viewBox="0 0 52 53" fill="none" xmlns="http://www.w3.org/2000/svg">
<g clip-path="url(#clip0_48_3807)">
<mask id="mask0_48_3807" style="mask-type:luminance" maskUnits="userSpaceOnUse" x="0" y="0" width="52" height="52">
<path d="M0.705322 0.5H51.2947V51.0951H0.705322V0.5Z" fill="white"/>
</mask>
<g mask="url(#mask0_48_3807)">
<path d="M26 51.0951C19.2405 51.0951 12.8928 48.4657 8.11374 43.6866C3.33466 38.9076 0.705322 32.5543 0.705322 25.7947C0.705322 19.0408 3.33466 12.6875 8.11374 7.90842C12.8928 3.12934 19.2405 0.5 26 0.5C32.7596 0.5 39.1072 3.12934 43.8863 7.90842C48.6654 12.6875 51.2947 19.0408 51.2947 25.7947C51.2947 32.5543 48.6654 38.9076 43.8863 43.6866C39.1129 48.4657 32.7596 51.0951 26 51.0951ZM26 4.35938C14.1793 4.35938 4.5647 13.9796 4.5647 25.7947C4.5647 37.6154 14.1793 47.2357 26 47.2357C37.8208 47.2357 47.4354 37.6154 47.4354 25.7947C47.4354 13.9796 37.8208 4.35938 26 4.35938Z" fill="#8B8F6B"/>
</g>
<path d="M34.3959 35.5673C34.0235 35.5673 33.6398 35.4544 33.3069 35.2287L23.9011 28.7795C23.3763 28.4184 23.0604 27.8203 23.066 27.1827L23.0886 11.401C23.0886 10.3346 23.9518 9.47699 25.0182 9.47699C25.0182 9.47699 25.0182 9.47699 25.0239 9.47699C26.0847 9.47699 26.9479 10.3403 26.9479 11.4067L26.9254 26.1671L35.4905 32.0408C36.3707 32.6445 36.5907 33.8463 35.9926 34.7266C35.6146 35.2739 35.0109 35.5673 34.3959 35.5673Z" fill="#8B8F6B"/>
</g>
<defs>
<clipPath id="clip0_48_3807">
<rect width="52" height="52" fill="white" transform="translate(0 0.5)"/>
</clipPath>
</defs>
</svg>
